<?xml version="1.0" standalone="no"?>
<!DOCTYPE svg PUBLIC "-//W3C//DTD SVG 20010904//EN"
 "http://www.w3.org/TR/2001/REC-SVG-20010904/DTD/svg10.dtd">
<svg version="1.0" xmlns="http://www.w3.org/2000/svg"
 width="1280.000000pt" height="720.000000pt" viewBox="0 0 1280.000000 720.000000"
 preserveAspectRatio="xMidYMid meet">

<g transform="translate(0.000000,720.000000) scale(0.100000,-0.100000)"
fill="#000000" stroke="none">
<path d="M0 3600 l0 -3600 1978 0 1979 0 12 40 c6 22 36 68 67 102 30 35 60
71 65 81 18 32 -7 18 -50 -29 -24 -25 -45 -43 -48 -40 -12 12 14 52 73 110 59
59 77 86 55 86 -5 0 -22 -15 -38 -33 -42 -47 -57 -56 -48 -26 4 13 32 50 63
81 62 64 64 94 2 33 -22 -21 -42 -36 -45 -33 -6 6 62 88 108 132 14 14 17 21
8 24 -7 2 -28 -11 -47 -29 -24 -23 -34 -28 -34 -17 0 8 7 21 15 28 8 7 15 21
15 31 0 25 25 24 92 0 55 -20 202 -51 343 -71 225 -33 307 -64 480 -180 117
-79 177 -109 214 -110 40 0 213 62 202 73 -6 6 -41 2 -97 -13 -51 -13 -102
-20 -121 -17 -33 6 -88 37 -253 144 -119 77 -214 127 -315 166 -93 36 -319
135 -415 181 -30 15 -89 41 -130 58 -41 17 -82 36 -90 42 -18 13 -55 35 -91
53 -45 22 -139 124 -174 188 -42 77 -68 206 -60 295 10 95 21 138 66 258 23
59 54 145 70 191 16 46 39 98 52 115 13 17 33 49 45 72 38 75 47 74 68 -8 22
-88 22 -153 0 -236 -20 -73 -32 -208 -22 -246 14 -55 129 -147 268 -213 64
-31 202 -69 328 -92 116 -21 287 -69 337 -94 18 -10 40 -17 50 -17 21 0 125
-37 194 -68 25 -12 69 -30 97 -41 84 -33 247 -118 279 -145 17 -14 33 -26 36
-26 2 0 30 -15 61 -34 91 -55 279 -75 342 -36 46 29 53 58 21 84 -179 147
-328 303 -461 481 -65 88 -130 174 -143 190 -45 57 -159 232 -208 320 -25 44
-113 156 -140 178 -15 12 -246 0 -278 -14 -15 -7 -30 -9 -34 -6 -10 11 29 36
55 37 45 0 132 32 180 64 26 18 85 52 131 75 46 23 96 50 110 60 14 9 44 26
66 36 49 22 186 121 239 173 94 91 136 164 136 232 l-1 25 -19 -23 c-10 -12
-35 -29 -56 -38 -38 -16 -49 -12 -66 25 -2 4 -41 24 -88 46 -128 59 -211 53
-405 -29 -33 -13 -61 -29 -63 -34 -1 -5 22 -14 52 -20 47 -9 104 -32 324 -128
45 -20 30 -38 -45 -53 -31 -6 -98 -33 -149 -61 -51 -27 -99 -50 -106 -50 -7 0
-25 -6 -40 -14 -25 -13 -134 -56 -143 -56 -2 0 -13 16 -25 35 -17 28 -23 58
-29 153 -6 104 -11 124 -35 166 -34 58 -69 177 -55 190 5 6 36 11 69 13 39 2
80 12 114 28 29 14 61 25 70 25 17 0 33 26 23 36 -3 4 -36 -4 -72 -15 -61 -20
-248 -53 -285 -50 -8 0 -38 0 -66 0 -51 -1 -154 35 -169 59 -7 11 -47 30 -74
34 -16 3 -40 88 -41 143 0 39 47 128 145 272 38 57 100 154 136 215 36 61 110
183 164 271 54 88 112 183 129 210 17 28 46 73 65 100 19 28 71 104 116 170
45 66 106 156 137 200 30 44 83 137 115 206 55 115 63 128 94 137 66 20 165
41 224 47 33 4 74 11 91 16 22 7 39 6 58 -2 20 -9 32 -9 51 -1 14 7 64 15 111
19 51 3 91 12 99 20 15 14 98 33 146 33 19 0 29 -5 29 -14 0 -17 -7 -19 -114
-41 -43 -8 -92 -22 -110 -29 -18 -7 -72 -17 -121 -21 -125 -10 -234 -30 -248
-45 -13 -13 -14 -14 118 10 33 5 123 13 200 16 151 6 186 12 145 24 l-25 7 30
12 c17 7 53 17 80 22 28 5 58 12 69 15 12 4 16 2 12 -5 -4 -6 -17 -11 -30 -11
-12 0 -31 -7 -42 -15 -17 -13 -17 -14 -1 -15 48 -1 -6 -45 -66 -54 -46 -7 -88
-27 -69 -34 17 -5 15 -22 -2 -22 -22 0 -30 -19 -16 -35 16 -20 30 -19 30 1 0
13 8 15 43 11 103 -12 234 -36 259 -47 19 -9 35 -10 49 -4 22 10 206 -22 297
-51 25 -9 42 -10 42 -4 0 5 12 -2 27 -16 31 -28 48 -33 39 -10 -6 17 19 21 29
5 8 -13 35 -13 35 0 0 5 -19 15 -42 21 -24 7 -53 21 -65 32 -24 21 -24 35 -1
21 7 -5 34 -9 60 -10 57 -2 78 -17 78 -55 0 -38 11 -42 58 -19 22 11 62 25 89
31 66 15 153 48 185 71 14 10 67 39 118 64 89 45 92 45 142 34 29 -6 79 -22
112 -36 34 -15 70 -30 81 -35 11 -4 47 -17 80 -28 126 -41 151 -57 173 -108
22 -51 58 -98 133 -172 123 -123 159 -145 252 -161 28 -4 63 -11 77 -15 36 -9
295 13 360 30 30 8 81 24 112 36 56 21 59 21 85 4 l27 -18 -23 -9 c-12 -4 -62
-11 -109 -14 -48 -4 -98 -12 -112 -19 -14 -7 -90 -32 -170 -56 -144 -43 -146
-43 -300 -42 -128 0 -169 4 -235 22 -102 29 -277 87 -335 113 -130 58 -158 72
-208 109 -30 21 -60 39 -66 39 -6 0 -36 25 -67 56 l-57 56 -129 -8 c-71 -5
-148 -6 -171 -3 -23 3 -44 3 -47 1 -8 -8 89 -82 108 -82 10 0 46 -9 81 -20 35
-12 105 -29 155 -39 90 -18 182 -65 196 -99 2 -7 -4 -31 -15 -53 -11 -21 -19
-39 -17 -39 3 0 20 13 38 30 19 16 40 30 47 30 27 0 72 -31 72 -50 0 -14 7
-19 28 -18 30 0 132 -47 132 -61 0 -5 -6 -24 -14 -42 -21 -51 -29 -99 -18 -99
6 0 16 16 22 35 7 21 24 42 45 55 28 17 37 19 60 8 23 -10 26 -16 20 -45 -7
-40 -2 -41 37 -8 23 20 33 23 48 15 11 -6 17 -17 14 -25 -7 -17 9 -19 36 -5
13 7 21 6 30 -5 7 -8 17 -12 23 -8 35 21 146 -24 191 -77 14 -17 26 -36 26
-41 0 -5 -32 -25 -72 -45 -69 -35 -119 -77 -146 -122 -15 -27 2 -30 36 -6 13
9 26 14 28 11 7 -6 -59 -57 -73 -57 -6 0 -17 -7 -24 -16 -12 -15 -11 -16 11
-9 14 4 55 23 93 41 72 36 93 32 27 -5 -40 -22 -59 -52 -21 -31 11 5 30 10 43
10 18 -1 13 -5 -20 -21 -47 -22 -53 -36 -8 -19 35 13 79 13 71 0 -8 -13 1 -13
45 0 l35 10 -25 -20 c-21 -16 -22 -20 -7 -20 10 0 27 5 39 11 11 6 22 8 25 5
10 -10 -19 -36 -39 -36 -10 0 -16 -5 -13 -10 4 -7 13 -6 26 1 11 5 34 9 52 7
l32 -4 -25 -12 -25 -12 27 3 c37 5 51 -7 87 -75 34 -61 38 -99 17 -139 -8 -15
-28 -87 -46 -160 -17 -74 -40 -159 -50 -189 -11 -30 -17 -56 -15 -58 2 -2 24
36 50 84 25 49 63 117 84 152 30 50 41 81 50 145 6 45 16 86 21 92 6 5 34 15
63 21 l52 12 -56 1 -56 1 5 31 c5 31 19 42 75 53 15 4 27 11 27 16 0 5 -6 8
-12 6 -39 -12 -68 -15 -68 -7 0 5 20 14 45 20 56 14 59 26 4 17 -35 -6 -40 -4
-37 11 2 12 20 23 48 31 25 7 63 21 85 31 42 20 134 38 495 96 47 7 108 18
135 24 28 6 100 18 160 26 155 21 217 32 238 40 11 5 17 2 17 -8 0 -24 -21
-35 -94 -50 -59 -12 -69 -12 -73 0 -7 19 -49 11 -131 -22 -33 -13 -91 -29
-128 -35 -81 -13 -286 -55 -364 -74 -39 -10 -47 -15 -26 -15 15 -1 54 5 85 13
31 8 101 22 156 30 55 9 120 20 145 25 25 5 47 7 50 4 9 -9 -42 -43 -63 -43
-21 0 -237 -38 -266 -46 -8 -3 -12 -7 -9 -9 2 -3 57 4 122 15 64 11 129 20
143 20 l26 0 -24 -19 c-25 -20 -109 -41 -162 -41 -18 0 -39 -5 -47 -11 -11 -7
6 -9 63 -6 53 3 77 1 74 -7 -5 -14 -53 -24 -162 -32 -49 -4 -97 -10 -105 -15
-14 -8 54 -6 188 6 56 6 64 -1 31 -31 -16 -14 -40 -20 -100 -23 -43 -2 -79 -7
-79 -12 0 -4 34 -9 75 -11 l75 -3 -42 -57 c-24 -32 -54 -79 -68 -105 -14 -26
-31 -54 -38 -62 -15 -16 -99 -136 -157 -225 -57 -87 -134 -194 -172 -241 -19
-21 -47 -67 -63 -101 -16 -34 -42 -77 -58 -96 -15 -18 -50 -66 -77 -105 -26
-40 -94 -119 -149 -176 -63 -63 -113 -125 -133 -162 -17 -33 -46 -73 -63 -90
-31 -29 -163 -218 -178 -253 -17 -40 -73 -119 -99 -138 -15 -12 -57 -67 -92
-124 -41 -66 -66 -98 -71 -90 -6 9 -13 4 -26 -16 -10 -16 -29 -40 -43 -54 -14
-14 -34 -36 -44 -50 -25 -35 -7 1 42 85 47 80 55 110 12 44 -221 -340 -314
-490 -306 -497 6 -7 2 -12 55 73 71 116 142 225 147 225 6 0 -76 -149 -114
-205 -18 -27 -33 -53 -33 -57 0 -20 31 -5 56 28 16 19 35 41 42 49 6 7 12 17
12 20 0 4 19 28 43 55 23 26 64 84 90 128 27 45 56 87 65 94 9 7 52 66 95 130
43 65 84 123 91 130 7 8 25 36 40 63 15 28 54 77 85 110 32 33 69 76 81 95 21
31 128 156 185 216 11 11 58 63 105 114 47 51 101 110 120 130 118 124 260
294 326 386 54 77 153 197 166 202 4 2 8 -4 8 -13 0 -17 153 118 276 244 115
117 77 56 -51 -83 -69 -75 -125 -139 -125 -143 0 -7 155 139 243 230 31 33 60
58 62 55 3 -3 -46 -58 -109 -124 -63 -65 -112 -121 -110 -123 3 -4 27 11 79
51 16 12 26 17 21 10 -4 -6 -3 -12 2 -12 6 0 55 46 109 101 55 56 106 100 113
97 7 -2 -40 -58 -111 -132 -68 -71 -126 -134 -128 -140 -2 -6 0 -8 4 -3 5 4
67 62 138 130 71 67 136 126 144 130 28 17 -3 -26 -61 -83 -55 -53 -72 -80
-40 -62 9 5 49 42 90 82 41 40 77 70 81 66 4 -3 -36 -50 -88 -102 -123 -126
-85 -104 56 31 61 57 117 105 126 105 10 0 16 7 15 17 -1 13 9 19 34 23 33 5
34 6 10 13 l-25 8 32 15 c22 9 31 19 27 29 -5 13 0 15 35 9 28 -4 41 -3 41 5
0 6 -6 11 -12 11 -7 0 -19 4 -27 9 -21 13 4 41 35 41 13 0 24 5 24 10 0 6 -6
10 -12 10 -7 0 0 11 15 25 15 14 27 32 27 40 0 16 -25 21 -34 6 -8 -12 -56
-20 -56 -9 0 6 10 23 21 40 18 25 19 32 8 39 -9 6 -10 12 -4 17 6 4 22 23 35
42 13 19 27 37 30 40 3 3 17 21 30 40 14 19 34 46 47 60 12 14 38 49 58 78 20
29 42 61 50 70 57 71 72 86 101 105 17 12 78 58 135 102 57 43 128 97 157 119
29 21 51 41 49 43 -2 2 -22 -7 -45 -19 -22 -13 -44 -19 -48 -15 -10 10 17 37
128 129 54 45 98 85 98 90 0 19 -26 4 -107 -65 -121 -102 -146 -119 -98 -67
63 69 118 119 145 133 14 8 34 18 45 25 46 26 162 74 233 98 42 14 118 40 167
58 158 57 219 76 246 76 14 0 30 5 35 10 21 21 110 21 242 1 152 -24 190 -38
217 -84 58 -94 67 -133 75 -327 7 -165 2 -380 -15 -570 -23 -256 -150 -736
-259 -980 -30 -65 -81 -162 -113 -217 -33 -54 -74 -126 -91 -160 -35 -68 -75
-112 -202 -223 -47 -41 -215 -205 -375 -365 -391 -392 -484 -477 -632 -581
-38 -26 -111 -80 -165 -120 -53 -39 -116 -81 -140 -93 -58 -28 -142 -43 -198
-35 -83 11 -80 8 -80 85 0 81 -9 104 -46 113 -39 10 -54 -9 -54 -69 0 -61 -7
-85 -25 -85 -19 0 -163 97 -191 128 -28 32 -44 81 -44 136 l0 39 51 -5 c29 -3
62 -14 79 -27 16 -11 37 -21 47 -21 14 0 5 14 -34 55 -59 63 -84 106 -76 134
3 13 -1 21 -14 23 -14 4 -5 17 48 71 52 51 71 64 88 60 12 -3 21 -1 21 6 0 6
7 11 15 11 8 0 15 -4 15 -10 0 -5 11 -10 25 -10 14 0 28 -7 31 -15 4 -10 14
-13 29 -9 15 4 24 0 28 -10 4 -9 16 -16 27 -16 11 0 30 -5 43 -12 48 -24 57
-27 94 -29 23 -2 49 4 64 14 14 10 33 15 42 11 11 -4 38 12 79 48 34 29 94 80
133 113 146 126 296 228 353 241 15 4 41 15 57 24 17 10 71 39 120 65 108 56
148 88 283 224 118 119 178 189 169 198 -3 3 -18 -10 -33 -28 -50 -64 -307
-309 -350 -334 -54 -32 -64 -32 -34 0 32 35 19 42 -27 14 -38 -23 -38 -23 -19
-1 27 31 11 40 -20 11 -19 -18 -27 -21 -33 -10 -7 10 -13 10 -29 2 -28 -15
-44 -14 -68 3 -18 14 -17 16 26 36 25 12 68 35 95 51 28 16 60 34 73 41 12 6
22 15 22 20 0 12 -13 10 -38 -8 -13 -9 -30 -13 -39 -10 -15 6 -73 -25 -118
-64 -24 -20 -83 -45 -91 -38 -12 13 41 98 67 109 16 6 34 18 41 27 11 13 10
14 -14 8 -33 -8 -32 -9 -12 40 27 65 7 158 -66 304 l-40 80 15 158 c25 244 84
379 251 570 16 18 40 46 54 62 13 17 29 30 35 30 6 0 5 -4 -2 -8 -7 -4 -9 -13
-4 -21 7 -10 17 -8 51 9 23 12 44 19 46 17 3 -3 -19 -25 -47 -50 -29 -26 -51
-48 -48 -51 2 -3 45 26 95 63 49 38 101 72 114 76 l25 8 -20 -23 c-11 -12 -66
-58 -123 -102 -57 -44 -101 -82 -98 -85 3 -3 65 40 139 96 74 55 141 101 150
101 11 0 17 -8 17 -24 0 -19 -27 -44 -132 -123 -73 -54 -156 -113 -185 -131
-54 -34 -83 -62 -65 -62 12 0 127 78 287 194 117 86 119 87 133 69 19 -26 15
-36 -36 -73 -26 -19 -51 -38 -57 -42 -5 -5 -53 -39 -105 -76 -52 -38 -117 -85
-145 -105 -27 -20 -87 -62 -132 -92 -46 -30 -83 -57 -83 -60 0 -15 51 13 157
88 64 45 155 110 203 143 49 34 115 82 148 108 70 54 97 58 107 19 6 -23 2
-31 -21 -48 -15 -11 -64 -47 -108 -81 -45 -33 -103 -75 -131 -94 -27 -19 -52
-36 -55 -39 -8 -10 -165 -116 -282 -192 -36 -23 -48 -39 -30 -39 5 0 62 35
128 79 115 76 163 109 384 269 58 42 108 71 116 68 11 -4 14 -28 14 -104 l0
-99 -52 -34 c-28 -19 -65 -43 -81 -53 -17 -11 -25 -22 -19 -24 6 -2 42 17 79
42 l68 45 3 -29 c2 -16 -2 -38 -8 -50 -9 -16 -8 -22 5 -26 9 -4 18 -4 21 -1 4
4 43 435 44 485 0 7 8 16 18 20 10 4 59 33 109 64 157 100 142 57 -19 -55
-100 -69 -120 -97 -26 -37 33 22 66 40 73 40 7 0 20 9 30 20 19 21 134 84 141
77 10 -10 -85 -85 -181 -145 -60 -37 -111 -73 -113 -81 -3 -10 4 -8 24 6 45
32 134 83 134 77 0 -18 -26 -45 -65 -68 -25 -15 -45 -31 -45 -36 0 -10 28 4
118 60 29 18 56 30 59 26 11 -10 -49 -66 -99 -93 -27 -15 -48 -30 -48 -35 0
-5 43 14 96 42 53 28 101 49 106 48 15 -5 -58 -61 -115 -89 -26 -13 -47 -27
-47 -32 0 -5 8 -6 18 -2 9 5 26 8 37 8 11 1 22 4 25 8 10 14 105 69 119 69 31
0 -36 -53 -124 -97 -49 -25 -91 -49 -93 -54 -2 -5 -11 -9 -20 -10 -9 0 -12 -3
-6 -5 7 -3 44 11 84 31 41 19 81 35 90 35 10 0 23 7 31 16 14 17 51 38 89 49
22 6 21 3 -15 -34 -23 -24 -72 -57 -117 -78 -92 -44 -104 -62 -18 -27 33 13
63 23 67 22 16 -4 102 58 103 73 0 9 7 22 15 29 13 11 15 8 15 -18 0 -23 -8
-36 -31 -52 -16 -12 -28 -25 -24 -28 3 -3 11 0 17 6 18 18 31 14 25 -8 -3 -11
-2 -20 3 -20 7 0 29 85 60 230 7 30 14 93 16 140 3 47 7 96 11 110 3 14 5 43
4 66 -2 26 3 45 13 53 23 19 21 44 -2 37 -17 -6 -20 4 -29 101 -8 87 -7 111 4
124 14 17 8 30 -12 23 -8 -3 -17 11 -25 40 -7 26 -17 46 -21 46 -5 0 -9 7 -9
15 0 8 -17 32 -38 54 -29 30 -47 41 -84 46 -58 9 -89 -1 -243 -75 -262 -127
-376 -218 -599 -475 -235 -271 -420 -529 -446 -625 -15 -53 -12 -225 6 -352
18 -130 13 -182 -22 -235 -36 -53 -102 -121 -147 -150 l-39 -24 -52 25 c-29
14 -59 37 -66 51 -7 14 -18 25 -23 25 -5 0 -36 -26 -68 -58 -33 -32 -77 -69
-99 -83 -22 -13 -40 -29 -40 -35 0 -5 -16 -25 -35 -44 -19 -19 -35 -39 -35
-46 0 -7 -17 -26 -37 -43 -28 -22 -33 -30 -20 -31 10 0 32 7 48 16 54 27 43 7
-13 -25 -29 -16 -56 -33 -61 -38 -32 -34 -47 -59 -47 -79 0 -13 -5 -26 -10
-29 -5 -3 -10 -20 -10 -37 0 -23 -9 -39 -32 -59 -28 -24 -30 -28 -13 -29 18
-1 19 -1 2 -11 -9 -5 -17 -19 -17 -29 0 -11 -4 -20 -9 -20 -5 0 -11 -10 -13
-23 -2 -15 4 -25 22 -34 l25 -12 -22 -6 c-13 -4 -23 -12 -23 -17 0 -6 8 -7 18
-3 32 14 62 17 62 7 0 -5 -13 -15 -30 -22 -34 -14 -142 -125 -165 -170 -9 -17
-19 -60 -22 -96 -6 -61 -8 -66 -37 -78 -17 -7 -41 -24 -52 -37 -26 -29 -164
-235 -164 -244 0 -4 -24 -50 -54 -104 -29 -53 -78 -143 -109 -201 -30 -58 -72
-136 -92 -175 -21 -38 -61 -115 -89 -170 -76 -147 -116 -205 -207 -295 l-82
-80 368 0 c340 1 367 2 352 17 -13 13 -19 14 -31 3 -23 -18 -21 0 10 95 14 44
29 94 34 110 28 104 35 125 42 125 4 0 8 7 8 16 0 8 5 12 10 9 6 -3 10 -18 10
-32 0 -26 -20 -93 -30 -103 -21 -21 -36 -76 -39 -142 -2 -73 -1 -78 18 -78 13
0 31 15 48 43 l28 42 3 -52 3 -53 79 0 79 0 17 35 c9 20 28 44 42 55 25 20 86
27 96 11 5 -8 -3 -45 -19 -83 -7 -17 79 -18 1634 -18 l1641 0 0 3600 0 3600
-675 0 c-457 0 -675 -3 -675 -10 0 -6 16 -24 35 -41 19 -17 35 -34 35 -39 0
-9 85 -152 123 -205 53 -76 87 -130 87 -139 0 -6 11 -21 24 -35 22 -25 58 -86
136 -236 52 -100 79 -145 109 -185 15 -19 44 -61 66 -93 21 -31 58 -80 82
-108 24 -28 43 -54 43 -57 0 -8 -230 226 -269 273 -14 17 -66 76 -115 131 -50
56 -115 133 -144 170 -29 38 -95 116 -147 174 -52 58 -125 146 -163 195 -38
50 -93 116 -121 148 l-53 57 -5589 0 -5589 0 0 -3600z m7120 3535 c0 -3 -6
-20 -13 -38 -7 -18 -19 -57 -25 -87 -7 -30 -30 -134 -52 -230 -38 -164 -52
-226 -80 -360 -6 -30 -22 -105 -35 -165 -13 -61 -37 -212 -54 -335 -17 -124
-36 -249 -41 -279 -15 -83 -14 -94 13 -88 171 40 339 96 467 154 30 14 93 41
138 59 46 19 123 56 170 82 48 26 123 65 167 86 189 90 357 205 531 363 122
110 224 178 409 273 94 48 220 119 280 158 123 80 116 74 170 121 l40 35 6
-65 c31 -322 32 -350 13 -385 -10 -19 -24 -34 -31 -34 -7 0 -16 -6 -20 -14 -4
-8 -17 -15 -28 -18 -16 -3 -20 -10 -18 -38 3 -32 2 -33 -9 -12 -14 27 -28 29
-28 2 0 -14 -7 -20 -21 -20 -15 0 -19 -4 -15 -16 3 -8 2 -23 -4 -33 -6 -12 -5
-24 5 -38 14 -19 13 -21 -5 -16 -21 6 -29 -20 -10 -32 6 -3 10 -21 10 -39 0
-20 8 -40 20 -51 25 -23 26 -35 0 -28 -24 6 -37 -21 -20 -42 10 -12 9 -15 -8
-15 -11 0 -27 -12 -37 -26 -16 -24 -16 -27 1 -45 18 -20 17 -20 -9 -10 -15 6
-28 7 -28 3 -5 -30 1 -41 34 -69 49 -41 36 -43 -17 -3 -45 34 -87 42 -47 9 13
-11 31 -24 40 -29 9 -5 13 -11 10 -14 -3 -3 -27 8 -53 25 -58 36 -75 29 -26
-12 19 -15 30 -29 24 -29 -6 0 -19 9 -29 20 -22 24 -35 26 -35 5 0 -8 5 -15
10 -15 18 0 11 -19 -7 -19 -47 -1 -249 -31 -335 -50 -93 -20 -155 -28 -397
-51 -142 -13 -270 -60 -546 -197 -251 -125 -267 -131 -402 -149 -129 -16 -394
-14 -588 7 -60 6 -157 9 -215 6 l-105 -6 -40 -44 c-22 -25 -46 -43 -53 -40
-10 4 -9 9 4 24 9 10 23 19 31 19 10 0 12 6 8 19 -8 25 20 41 69 41 25 0 36 4
36 15 0 10 -10 15 -27 15 -27 1 -27 1 -9 15 11 8 30 15 42 15 31 0 40 18 12
23 -17 2 -19 5 -8 9 55 21 55 22 0 28 -66 6 -56 15 30 29 73 12 82 17 46 27
-14 3 -26 10 -26 15 0 12 -46 11 -88 0 -17 -5 -32 -6 -32 -2 0 5 21 14 48 21
75 19 76 20 66 30 -6 6 -22 6 -43 0 -18 -5 -46 -7 -62 -3 -22 4 -37 -1 -64
-21 -60 -46 -60 -24 -1 34 31 30 56 58 56 63 0 21 -32 -1 -106 -73 -73 -71
-104 -93 -104 -73 0 6 133 131 177 166 18 15 21 22 12 28 -10 6 -10 12 4 27
43 47 4 43 -45 -5 -21 -20 -38 -34 -38 -31 0 4 23 29 50 56 45 44 65 79 41 70
-25 -9 -401 -383 -415 -412 -13 -27 -25 -36 -61 -45 -54 -13 -62 -35 -10 -25
23 4 35 2 35 -5 0 -6 -6 -11 -14 -11 -22 0 -92 -32 -80 -37 6 -2 45 6 85 17
107 31 123 34 116 24 -3 -5 -46 -23 -96 -39 -50 -17 -91 -33 -91 -38 0 -8 34
-1 95 19 22 8 47 14 55 14 25 0 -3 -16 -70 -40 -65 -23 -95 -40 -71 -40 21 0
3 -17 -42 -39 -24 -12 -57 -21 -73 -21 -23 0 -135 -18 -194 -32 -8 -2 -19 23
-30 67 -10 40 -38 103 -64 147 -71 120 -74 109 63 218 66 52 125 96 132 99 7
2 -24 -37 -68 -86 -45 -50 -86 -100 -92 -112 -19 -35 5 -24 35 17 28 36 301
312 310 312 17 0 -13 -36 -129 -157 -132 -137 -202 -221 -192 -232 3 -2 20 13
38 34 17 22 84 94 148 160 64 66 135 143 158 172 22 29 76 81 118 115 43 35
98 83 123 108 25 25 77 69 115 99 149 114 751 739 933 968 58 73 82 96 82 78z
m-2010 -199 c0 -8 -7 -16 -15 -20 -10 -4 -15 1 -15 14 0 11 7 20 15 20 8 0 15
-6 15 -14z m-80 -35 c-5 -11 -25 -30 -42 -43 l-33 -23 33 43 c35 43 61 58 42
23z m19 -67 c-23 -25 -92 -74 -104 -74 -14 0 40 64 69 81 46 28 65 24 35 -7z
m-152 -21 c-9 -9 -20 -14 -24 -10 -3 4 2 14 13 21 25 19 33 10 11 -11z m5 -54
c-24 -23 -46 -39 -49 -35 -9 9 58 76 76 76 10 0 0 -16 -27 -41z m158 33 c0
-12 -102 -112 -114 -112 -6 0 16 27 49 60 62 63 65 65 65 52z m51 -9 c-12 -24
-60 -68 -66 -62 -6 6 57 78 68 79 4 0 3 -8 -2 -17z m-283 -45 c-7 -19 -68 -58
-91 -58 -26 0 -14 13 40 46 44 26 56 29 51 12z m122 -6 c0 -12 -80 -86 -108
-101 -53 -29 -41 -1 23 52 67 56 85 66 85 49z m100 -75 c-19 -18 -27 -23 -20
-12 27 38 43 55 49 50 3 -3 -10 -20 -29 -38z m70 18 c-7 -9 -15 -13 -17 -11
-7 7 7 26 19 26 6 0 6 -6 -2 -15z m-321 -12 c-25 -33 -103 -103 -114 -103 -3
0 -53 -23 -111 -50 -58 -28 -110 -48 -114 -45 -21 13 5 34 61 50 48 13 70 26
107 65 26 27 61 52 77 56 l30 7 -19 -22 c-37 -41 -8 -31 39 14 49 46 68 58 44
28z m186 -24 c-48 -48 -94 -83 -102 -76 -6 7 24 37 82 85 55 45 67 40 20 -9z
m-1035 6 c0 -8 -4 -15 -10 -15 -5 0 -7 7 -4 15 4 8 8 15 10 15 2 0 4 -7 4 -15z
m149 -203 c-8 -44 -16 -66 -19 -56 -10 29 -4 134 11 199 l14 60 3 -65 c2 -36
-2 -98 -9 -138z m751 133 c-30 -30 -61 -55 -70 -55 -16 1 98 110 114 110 6 0
-14 -25 -44 -55z m-560 18 c0 -16 -5 -35 -10 -43 -6 -10 -9 -2 -7 28 1 46 17
59 17 15z m778 -2 c-22 -29 -47 -45 -55 -37 -7 7 49 66 64 66 11 0 9 -7 -9
-29z m-893 -149 c-4 -36 -11 -60 -16 -56 -11 6 -6 100 8 174 l8 45 3 -50 c2
-27 1 -78 -3 -113z m-130 101 c-15 -92 -27 -143 -34 -147 -7 -5 3 119 14 162
9 38 26 25 20 -15z m745 31 c0 -8 -71 -72 -95 -86 -19 -10 -19 -10 -6 8 48 62
101 104 101 78z m134 -45 c-16 -17 -38 -35 -49 -41 -11 -6 -2 8 20 31 21 22
43 41 49 41 5 0 -3 -14 -20 -31z m111 -39 c-27 -27 -56 -50 -64 -50 -9 0 5 21
34 50 27 28 56 50 64 50 9 0 -5 -21 -34 -50z m92 25 c-4 -8 -14 -15 -23 -15
-16 0 -16 2 1 20 20 22 31 20 22 -5z m-1162 -71 c-3 -24 -10 -46 -14 -48 -4
-3 -4 18 0 47 4 29 8 61 10 72 1 17 3 16 6 -4 3 -13 2 -44 -2 -67z m705 79 c0
-5 -15 -24 -33 -45 -49 -55 -164 -86 -155 -40 2 8 41 32 88 53 92 40 100 43
100 32z m-755 -60 c-9 -75 -24 -103 -25 -47 0 55 10 104 22 104 6 0 7 -23 3
-57z m935 51 c0 -10 -61 -64 -73 -64 -17 0 47 69 66 70 4 0 7 -3 7 -6z m-619
-179 c-8 -35 -9 -28 -10 52 -1 50 2 100 7 110 11 28 14 -115 3 -162z m727 145
c-7 -11 -19 -22 -28 -25 -8 -4 -4 5 9 19 29 31 36 33 19 6z m-242 -39 c-21
-21 -56 -46 -78 -54 -36 -15 -39 -15 -36 1 2 9 11 16 20 16 9 -1 37 16 63 37
61 50 80 50 31 0z m149 -21 c-16 -17 -33 -30 -39 -30 -5 0 5 16 24 35 18 19
36 32 39 30 2 -3 -8 -19 -24 -35z m177 -1 c-24 -23 -46 -39 -49 -36 -7 8 28
53 52 64 40 21 39 12 -3 -28z m79 21 c-30 -26 -50 -26 -25 -1 10 11 26 20 34
20 10 0 8 -6 -9 -19z m-826 -55 c-3 -26 -9 -44 -12 -41 -3 3 -2 26 2 51 3 26
9 44 12 41 3 -3 2 -26 -2 -51z m496 14 c-24 -21 -46 -37 -48 -35 -6 6 70 75
82 75 6 0 -10 -18 -34 -40z m-439 -12 c1 -20 -1 -39 -5 -43 -4 -4 -7 14 -7 41
0 56 8 57 12 2z m228 21 c0 -7 -9 -24 -20 -38 -17 -21 -21 -23 -30 -10 -15 24
-12 40 9 40 11 0 23 5 26 10 8 14 15 13 15 -2z m344 -29 c-23 -25 -54 -43 -61
-35 -8 8 49 56 66 56 11 0 9 -5 -5 -21z m-517 -56 c-2 -16 -4 -5 -4 22 0 28 2
40 4 28 2 -13 2 -35 0 -50z m648 47 c-3 -5 -16 -15 -28 -21 -22 -12 -22 -12
-3 10 19 21 43 30 31 11z m-415 -17 c-1 -24 -43 -55 -64 -47 -25 9 -19 29 12
41 33 13 52 15 52 6z m161 -21 c-9 -17 -58 -42 -82 -42 -13 0 42 51 65 60 27
10 30 6 17 -18z m149 -7 c-7 -9 -15 -13 -18 -10 -3 2 1 11 8 20 7 9 15 13 18
10 3 -2 -1 -11 -8 -20z m141 5 c-26 -22 -41 -25 -41 -10 0 6 10 15 23 20 36
14 44 11 18 -10z m5234 -17 c-7 -41 -44 -155 -45 -138 -1 14 44 175 48 175 2
0 1 -17 -3 -37z m-6277 -130 c-2 -68 -1 -123 3 -123 4 0 14 -3 23 -6 13 -5 15
6 14 78 -1 128 22 240 35 167 7 -36 4 -92 -8 -178 -8 -51 -7 -53 14 -46 12 4
21 2 21 -4 0 -6 -7 -11 -15 -11 -8 0 -15 -4 -15 -9 0 -5 35 -11 78 -14 173
-12 207 -18 312 -56 53 -18 75 -40 187 -189 47 -61 89 -115 94 -118 18 -11 8
-23 -43 -52 -59 -34 -91 -58 -152 -116 -46 -44 -37 -39 49 26 84 63 159 103
178 95 27 -10 20 -22 -40 -65 -32 -22 -87 -66 -123 -97 -59 -51 -66 -54 -77
-39 -7 10 -13 21 -13 26 0 4 -7 8 -15 8 -21 0 -18 34 10 115 14 39 25 71 25
73 0 19 -121 -91 -147 -133 -12 -20 -13 -20 -28 -1 -8 11 -18 34 -21 53 -3 18
-12 33 -20 33 -8 0 -14 -4 -14 -10 0 -21 -31 -9 -40 16 -11 28 -3 142 12 182
4 13 5 28 2 34 -8 12 -48 -47 -80 -117 -17 -38 -29 -52 -39 -48 -17 6 -65 150
-65 194 0 16 -4 29 -10 29 -13 0 -19 -31 -22 -104 l-3 -59 -102 -31 c-57 -16
-103 -33 -103 -37 0 -7 9 -6 92 5 49 7 64 5 103 -14 25 -12 45 -25 45 -28 0
-13 -115 -51 -173 -58 -31 -4 -62 -13 -68 -20 -15 -19 -86 -37 -131 -35 -21 1
-38 -2 -38 -6 1 -20 127 -193 140 -193 5 0 10 15 12 32 3 31 7 34 83 60 44 15
89 31 100 36 102 47 109 46 255 -39 14 -7 27 -17 30 -20 3 -3 24 -14 47 -24
38 -17 45 -25 62 -76 42 -124 192 -303 302 -359 56 -28 71 -31 153 -32 50 0
110 5 133 11 44 12 163 79 200 114 18 16 25 18 37 8 11 -10 20 -10 37 -1 21
12 22 12 14 -46 -10 -81 -19 -96 -58 -92 -23 2 -32 8 -31 20 2 18 -12 15 -61
-14 -26 -15 -61 -18 -220 -21 -144 -3 -201 -7 -235 -20 -151 -55 -247 -70
-293 -46 -80 42 -279 220 -367 329 -100 123 -160 187 -160 171 0 -8 11 -28 24
-45 26 -35 40 -96 21 -96 -6 0 -44 25 -84 55 -40 30 -81 55 -92 55 -25 0 -25
-17 0 -25 23 -7 111 -111 111 -131 0 -8 -5 -14 -11 -14 -18 0 -144 106 -175
147 -17 23 -29 32 -32 24 -2 -7 55 -73 128 -146 l132 -132 -26 -19 c-15 -11
-37 -27 -49 -37 l-22 -19 25 7 c92 24 113 24 157 -7 39 -27 59 -68 33 -68 -5
0 -10 -4 -10 -10 0 -5 7 -10 15 -10 20 0 19 -7 -6 -33 -26 -27 -42 -57 -32
-57 5 0 30 16 57 35 l49 35 31 -18 c17 -10 30 -26 30 -35 -1 -13 6 -17 30 -17
18 0 56 -12 85 -27 44 -21 69 -26 132 -27 47 -1 78 -5 76 -11 -4 -11 -117 -35
-182 -39 -22 -1 -69 -16 -105 -33 -172 -82 -354 -162 -358 -159 -5 6 287 145
337 161 34 10 25 22 -23 29 -36 6 -58 2 -111 -19 -109 -44 -297 -145 -337
-181 -21 -19 -44 -34 -51 -34 -8 0 -21 -8 -30 -17 -8 -10 -41 -31 -71 -48 -31
-16 -56 -33 -56 -37 0 -11 28 -10 35 1 10 18 90 57 108 53 13 -3 6 -13 -30
-43 -26 -21 -52 -39 -58 -39 -14 -1 -73 -50 -59 -50 5 0 36 15 67 34 74 45 97
52 97 32 0 -9 -5 -16 -11 -16 -7 0 -19 -8 -28 -18 -9 -10 -42 -34 -73 -53 -32
-18 -58 -37 -58 -41 0 -5 -6 -8 -14 -8 -8 0 -15 14 -18 35 -7 64 34 530 48
544 3 3 9 0 13 -7 5 -8 11 22 15 70 12 156 16 193 26 228 15 55 28 174 20 185
-4 6 -4 45 1 88 4 43 13 156 19 250 13 190 25 245 110 492 59 171 69 193 70
153 0 -15 6 -31 13 -35 7 -4 21 -25 32 -45 15 -28 22 -35 32 -26 10 8 13 7 13
-5 0 -8 7 -21 16 -28 15 -12 16 -10 10 26 -13 85 -19 228 -9 222 6 -4 13 -53
16 -109 6 -113 20 -169 39 -150 9 9 8 18 0 37 -16 34 -16 195 -1 195 9 0 10
-24 6 -82 -4 -69 -2 -88 14 -120 11 -21 23 -37 27 -34 4 3 5 33 1 68 -3 35 -2
95 3 133 20 164 32 144 26 -42z m150 -14 c0 -42 2 -81 6 -87 3 -6 2 -13 -3
-17 -28 -16 -41 106 -24 221 l7 49 8 -45 c4 -25 7 -79 6 -121z m502 142 c0
-14 -69 -63 -80 -56 -14 9 -3 23 34 46 34 21 46 24 46 10z m134 -14 c-4 -12
-55 -47 -68 -47 -3 0 6 11 19 24 20 20 31 28 52 35 1 1 0 -5 -3 -12z m142 -13
c-19 -13 -46 -19 -46 -9 0 8 55 34 60 28 3 -2 -4 -11 -14 -19z m134 6 c0 -5
-5 -10 -11 -10 -5 0 -7 5 -4 10 3 6 8 10 11 10 2 0 4 -4 4 -10z m-393 -46
c-42 -38 -42 -54 -2 -36 32 15 33 -2 0 -24 -23 -15 -25 -15 -50 12 -14 15 -25
30 -25 33 0 7 89 49 105 50 6 0 -7 -16 -28 -35z m-848 -21 c-1 -39 -2 -43 -9
-23 -12 36 -12 70 0 70 6 0 10 -21 9 -47z m442 -73 c-8 -21 -10 -16 -10 32 -1
75 13 111 17 43 2 -28 -2 -62 -7 -75z m709 111 c0 -11 -31 -24 -39 -16 -3 3 1
10 9 15 19 12 30 12 30 1z m4260 -19 c0 -15 -2 -15 -10 -2 -13 20 -13 33 0 25
6 -3 10 -14 10 -23z m-4130 12 c0 -11 -34 -33 -49 -34 -11 0 -10 5 4 20 17 19
45 27 45 14z m-327 -26 c-13 -12 -26 -18 -30 -14 -4 4 1 14 11 22 31 22 43 17
19 -8z m-450 -28 c3 -19 1 -44 -3 -55 -6 -14 -9 -2 -9 39 -1 65 4 71 12 16z
m552 29 c-8 -12 -56 -32 -62 -25 -5 5 46 35 60 36 5 0 5 -5 2 -11z m113 -16
c-15 -15 -31 -23 -35 -19 -4 4 3 16 17 26 37 29 49 24 18 -7z m-781 -5 c-3 -8
-6 -5 -6 6 -1 11 2 17 5 13 3 -3 4 -12 1 -19z m-487 -28 c-16 -40 -23 -33 -9
9 6 18 14 30 17 27 2 -3 -1 -19 -8 -36z m5540 -62 c21 -98 59 -249 79 -313 5
-16 26 -87 47 -157 28 -94 43 -128 54 -128 9 0 48 30 86 68 38 37 93 90 123
117 l53 50 -5 -155 c-2 -85 -3 -135 -1 -110 8 90 37 285 45 300 14 24 11 -37
-11 -245 -19 -186 -24 -263 -16 -254 5 5 31 191 46 329 19 176 31 240 44 240
14 0 15 11 -29 -320 -26 -202 -31 -295 -16 -286 5 3 12 41 15 83 4 43 13 116
21 163 7 47 16 112 20 145 3 33 13 107 21 165 14 98 26 132 40 118 3 -3 -9
-111 -26 -240 -18 -128 -34 -250 -37 -271 -8 -59 2 -85 32 -83 15 0 29 10 37
26 7 14 20 32 29 40 9 8 31 61 49 118 18 56 41 113 51 126 11 13 19 30 19 38
0 21 41 142 53 153 19 19 -4 -69 -44 -169 -21 -54 -39 -108 -39 -121 0 -27
-38 -117 -115 -275 -114 -233 -140 -282 -155 -288 -8 -3 -26 -16 -40 -29 -14
-13 -28 -23 -32 -23 -17 0 -7 19 21 43 41 34 28 40 -25 10 -24 -14 -44 -21
-44 -16 0 4 21 27 48 51 36 33 42 43 25 39 -18 -4 -23 -1 -23 17 0 12 -6 30
-13 41 -7 11 -19 40 -27 65 -20 65 -49 129 -79 175 -62 96 -278 336 -341 380
-33 23 -39 32 -34 52 5 17 0 31 -17 49 -18 20 -21 27 -10 33 10 6 10 10 2 16
-8 4 -10 19 -6 38 4 18 9 44 12 58 3 14 0 42 -5 62 -8 28 -7 37 4 41 8 3 14
12 14 20 0 24 34 85 48 86 6 0 12 7 12 15 0 8 4 15 8 15 5 0 19 -46 32 -102z
m-4883 55 c-3 -10 -5 -4 -5 12 0 17 2 24 5 18 2 -7 2 -21 0 -30z m510 2 c-37
-33 -57 -32 -27 0 13 14 31 25 39 25 11 -1 8 -8 -12 -25z m5237 -12 c-8 -48
-22 -65 -17 -21 5 41 11 58 18 58 3 0 3 -17 -1 -37z m-5914 -53 c15 -10 16
-45 0 -45 -12 0 -15 14 -16 65 -1 36 1 47 3 25 3 -22 8 -42 13 -45z m530 65
c-7 -8 -19 -15 -26 -15 -8 0 -14 -4 -14 -9 0 -6 23 -3 51 5 28 9 54 12 57 9 8
-8 -38 -44 -55 -45 -7 0 -13 -5 -13 -11 0 -7 9 -9 23 -5 12 3 33 9 47 12 l25
7 -24 -26 c-40 -44 -58 -44 -102 -1 -21 21 -39 44 -39 52 0 7 15 19 33 27 42
18 52 18 37 0z m280 -4 c0 -12 -54 -51 -71 -51 -7 0 0 14 16 30 28 29 55 39
55 21z m-1474 -28 c19 -26 17 -71 -12 -228 -14 -77 -30 -192 -35 -255 -5 -63
-14 -136 -19 -161 -5 -25 -7 -77 -4 -115 5 -54 1 -86 -16 -144 -36 -125 -33
-119 -41 -85 l-6 30 -11 -26 c-26 -63 -37 -258 -36 -624 1 -203 5 -414 8 -469
8 -111 -3 -124 -34 -41 -10 28 -38 106 -63 175 -25 69 -58 175 -72 235 -15 61
-37 146 -50 190 -49 164 -59 372 -25 534 17 84 65 253 77 274 3 5 27 70 53
145 26 76 59 164 74 197 15 33 43 100 62 148 18 49 42 101 52 115 10 15 29 48
41 75 25 51 36 57 57 30z m1346 -24 c-19 -17 -37 -27 -40 -24 -8 8 44 55 61
55 7 0 -3 -14 -21 -31z m-1202 -24 c-16 -47 -23 -40 -8 8 6 20 13 35 16 33 2
-3 -1 -21 -8 -41z m6371 4 c-9 -22 -10 -22 -10 -3 -1 11 2 24 6 27 12 12 14 0
4 -24z m-5041 1 c-14 -10 -27 -17 -29 -15 -8 8 22 35 38 35 12 0 10 -5 -9 -20z
m-483 -52 c-2 -13 -4 -3 -4 22 0 25 2 35 4 23 2 -13 2 -33 0 -45z m5629 15
c-8 -57 -25 -114 -37 -128 -6 -5 -7 5 -3 25 8 47 37 150 42 150 2 0 1 -21 -2
-47z m-5575 -20 l-4 -38 -10 32 c-5 18 -7 40 -3 50 11 28 23 -1 17 -44z m339
34 c-8 -7 -28 -19 -43 -25 -23 -10 -28 -10 -25 0 5 15 46 38 68 38 13 0 13 -2
0 -13z m5295 -53 c-18 -35 -19 -25 -2 30 8 28 13 35 15 20 2 -11 -4 -33 -13
-50z m-5865 35 c0 -5 -7 -9 -15 -9 -9 0 -12 6 -9 15 6 15 24 11 24 -6z m50 -5
c0 -8 -7 -14 -15 -14 -15 0 -21 21 -9 33 10 9 24 -2 24 -19z m410 0 c0 -3 -6
-12 -14 -19 -17 -17 -30 -7 -15 12 12 13 29 18 29 7z m5171 -21 c-8 -15 -10
-15 -11 -2 0 17 10 32 18 25 2 -3 -1 -13 -7 -23z m-5041 -3 c-24 -15 -37 -11
-16 5 11 8 22 12 25 9 3 -3 -1 -9 -9 -14z m-313 -42 c-2 -13 -4 -5 -4 17 -1
22 1 32 4 23 2 -10 2 -28 0 -40z m219 17 c-23 -17 -36 -19 -36 -6 0 11 18 19
40 20 11 0 10 -3 -4 -14z m239 -5 c-3 -5 -16 -15 -28 -21 -22 -12 -22 -12 -3
10 19 21 43 30 31 11z m4855 -11 c0 -64 -71 -369 -86 -369 -6 0 -4 20 27 210
11 69 25 135 31 148 12 23 28 30 28 11z m-5050 -14 c-7 -8 -22 -15 -34 -15
-21 1 -21 1 -2 15 27 21 53 20 36 0z m-1259 -22 c-12 -20 -14 -14 -5 12 4 9 9
14 11 11 3 -2 0 -13 -6 -23z m1345 1 c-30 -21 -44 -16 -17 7 13 11 27 17 30
13 3 -3 -3 -12 -13 -20z m-411 6 c3 -5 1 -10 -4 -10 -6 0 -11 5 -11 10 0 6 2
10 4 10 3 0 8 -4 11 -10z m335 -20 c0 -5 -5 -10 -11 -10 -5 0 -7 5 -4 10 3 6
8 10 11 10 2 0 4 -4 4 -10z m5075 -71 c-22 -102 -37 -149 -47 -149 -5 0 -7 8
-4 18 3 10 13 44 21 77 39 150 57 182 30 54z m-4979 45 c-11 -7 -22 -12 -25
-9 -2 3 4 12 15 19 10 8 21 12 24 9 3 -2 -4 -11 -14 -19z m-389 -26 c-3 -7 -5
-2 -5 12 0 14 2 19 5 13 2 -7 2 -19 0 -25z m5408 -50 c-8 -29 -20 -60 -25 -68
-18 -27 -12 14 12 87 26 78 37 62 13 -19z m-4955 53 c0 -10 -69 -45 -76 -38
-7 7 46 47 62 47 8 0 14 -4 14 -9z m-360 -68 c0 -38 -4 -63 -8 -56 -7 11 -4
123 4 123 2 0 4 -30 4 -67z m58 -6 c3 -64 -12 -77 -22 -19 -9 59 -7 84 7 80 7
-3 13 -27 15 -61z m-98 27 c0 -14 -4 -23 -10 -19 -5 3 -10 15 -10 26 0 10 5
19 10 19 6 0 10 -12 10 -26z m415 -11 c-20 -14 -35 -17 -35 -7 0 12 35 32 44
27 5 -4 1 -12 -9 -20z m-275 -40 c0 -22 -2 -25 -10 -13 -13 20 -13 40 0 40 6
0 10 -12 10 -27z m290 -8 c-7 -8 -20 -15 -28 -15 -13 0 -12 3 4 15 25 19 40
19 24 0z m-330 -87 c0 -10 -2 -18 -5 -18 -2 0 -9 8 -14 18 -8 14 -6 19 5 19 7
0 14 -9 14 -19z m115 -42 c8 -76 -6 -115 -17 -46 -10 65 -9 110 1 110 5 0 13
-29 16 -64z m1170 -22 c-39 -35 -79 -69 -90 -75 -11 -6 11 18 50 53 38 35 76
71 84 80 8 10 17 15 20 12 3 -3 -26 -34 -64 -70z m-1115 -10 c0 -36 -19 -49
-21 -14 -1 11 -2 26 -3 33 -3 18 4 28 15 22 5 -4 9 -22 9 -41z m5010 1 c-6
-15 -13 -26 -15 -23 -3 2 1 19 8 37 6 17 13 28 15 23 1 -5 -2 -22 -8 -37z
m-1211 28 c0 -11 -59 -57 -59 -47 0 4 10 18 22 31 21 23 39 30 37 16z m86 -3
c-3 -5 -15 -15 -26 -21 -19 -10 -20 -9 -9 10 6 12 18 21 26 21 8 0 12 -4 9
-10z m53 -25 c-44 -41 -65 -46 -47 -12 16 29 39 46 64 46 17 0 14 -5 -17 -34z
m102 31 c0 -10 -81 -68 -87 -62 -8 8 56 66 73 66 8 0 14 -2 14 -4z m100 -6 c0
-5 -5 -10 -11 -10 -5 0 -7 5 -4 10 3 6 8 10 11 10 2 0 4 -4 4 -10z m-59 -17
c-5 -10 -21 -29 -36 -43 -23 -20 -26 -21 -17 -5 11 22 50 65 58 65 2 0 0 -8
-5 -17z m-446 -3 c-3 -5 -11 -10 -16 -10 -6 0 -7 5 -4 10 3 6 11 10 16 10 6 0
7 -4 4 -10z m570 0 c3 -5 1 -10 -4 -10 -6 0 -11 5 -11 10 0 6 2 10 4 10 3 0 8
-4 11 -10z m-605 -9 c0 -11 -81 -103 -87 -97 -8 8 26 64 53 85 30 23 34 25 34
12z m183 -32 c-10 -17 -33 -42 -52 -56 -20 -16 -29 -28 -22 -32 22 -14 -107
-151 -141 -151 -23 0 48 74 131 137 2 2 1 6 -2 9 -4 4 -13 1 -22 -6 -25 -20
-25 -7 -1 20 23 27 116 110 123 110 2 0 -4 -14 -14 -31z m357 23 c0 -11 -36
-44 -72 -67 -41 -25 -34 -8 13 36 40 38 59 48 59 31z m814 -20 c-3 -16 -19
-71 -35 -123 -26 -84 -29 -88 -24 -42 3 28 17 82 30 120 14 37 25 69 25 70 0
2 2 3 5 3 2 0 2 -13 -1 -28z m-1434 15 c0 -2 -10 -12 -21 -23 -22 -19 -22 -19
-10 4 10 18 31 31 31 19z m-150 -15 c0 -5 -15 -19 -32 -31 l-33 -23 30 30 c33
34 35 35 35 24z m258 -12 c-7 -11 -19 -22 -28 -25 -8 -4 -4 5 9 19 29 31 36
33 19 6z m61 -2 c-14 -28 -70 -88 -81 -88 -13 0 11 41 45 78 36 37 53 42 36
10z m492 5 c-9 -18 -36 -44 -75 -73 -18 -14 -18 -14 -8 5 18 31 35 49 62 68
31 21 33 21 21 0z m-3116 -33 c-21 -22 -42 -40 -47 -40 -7 0 73 79 82 80 2 0
-14 -18 -35 -40z m2757 3 c-11 -15 -32 -39 -46 -52 -46 -43 -31 4 15 49 46 45
62 46 31 3z m166 15 c-22 -34 -132 -120 -136 -108 -6 16 34 56 93 96 59 40 62
41 43 12z m-4108 3 c0 -11 -224 -181 -239 -181 -6 0 -11 4 -11 9 0 9 170 150
205 169 24 14 45 15 45 3z m4384 0 c8 -12 -64 -75 -115 -101 l-42 -22 21 29
c22 31 54 61 92 86 29 19 37 20 44 8z m-380 -24 c-6 -17 -64 -61 -70 -54 -6 5
57 67 68 67 4 0 5 -6 2 -13z m-3994 -22 c-33 -19 -49 -19 -24 0 10 8 26 14 34
14 9 0 4 -6 -10 -14z m100 1 c6 -8 17 -13 24 -10 14 5 29 -33 19 -48 -6 -10
-49 27 -64 55 -12 21 4 23 21 3z m3420 -9 c0 -12 -64 -87 -75 -87 -15 0 -1 30
30 63 38 40 45 44 45 24z m-3330 -48 c0 -36 -4 -49 -12 -46 -7 2 -13 11 -12
20 0 10 1 31 2 47 3 51 22 33 22 -21z m3390 41 c0 -13 -60 -80 -71 -80 -14 0
10 40 40 66 30 27 31 27 31 14z m516 -11 c-8 -11 -25 -28 -38 -37 -22 -15 -23
-15 -8 3 29 41 43 55 52 55 5 0 3 -9 -6 -21z m291 -7 c-15 -16 -46 -39 -70
-52 l-42 -23 25 29 c40 47 74 74 94 74 18 0 17 -3 -7 -28z m-4357 14 c0 -5
-190 -146 -197 -146 -13 0 28 38 100 92 70 51 97 67 97 54z m3651 -13 c-6 -10
-22 -31 -36 -48 l-26 -30 15 32 c15 30 42 63 52 63 3 0 0 -8 -5 -17z m-3736
-2 c-63 -56 -148 -122 -157 -119 -10 4 147 128 161 128 3 0 1 -4 -4 -9z m3685
5 c0 -2 -8 -10 -17 -17 -16 -13 -17 -12 -4 4 13 16 21 21 21 13z m520 -16
c-13 -25 -58 -55 -68 -45 -7 7 55 65 70 65 5 0 4 -9 -2 -20z m-4131 -36 c-30
-20 -75 -52 -100 -70 -26 -19 -49 -34 -53 -34 -16 0 -2 17 32 40 20 14 39 27
42 30 3 3 28 20 55 38 69 44 90 40 24 -4z m4421 29 c0 -4 -20 -25 -44 -48 -46
-42 -126 -91 -126 -77 0 4 26 30 57 58 73 63 113 87 113 67z m-4207 -18 c4 -8
2 -17 -3 -20 -6 -4 -10 3 -10 14 0 25 6 27 13 6z m1087 5 c0 -5 -5 -10 -11
-10 -5 0 -7 5 -4 10 3 6 8 10 11 10 2 0 4 -4 4 -10z m2849 -31 c-32 -40 -55
-57 -65 -46 -7 7 75 87 88 87 5 0 -5 -18 -23 -41z m-480 -8 c-29 -37 -59 -59
-59 -44 0 10 73 83 83 83 4 0 -6 -18 -24 -39z m171 31 c0 -5 -13 -18 -30 -30
-35 -26 -40 -17 -7 15 23 23 37 29 37 15z m60 0 c0 -13 -79 -96 -86 -89 -8 8
31 62 59 82 25 17 27 18 27 7z m64 -33 c-35 -37 -93 -74 -101 -65 -4 4 0 13 8
22 23 23 113 82 118 78 3 -2 -9 -18 -25 -35z m-3894 22 c0 -5 -33 -29 -72 -53
-40 -24 -83 -50 -95 -58 -12 -8 -26 -10 -30 -6 -4 5 -2 11 4 13 7 3 49 29 94
59 82 54 99 62 99 45z m3303 -35 c-37 -62 -93 -93 -62 -34 13 25 68 78 81 78
4 0 -4 -20 -19 -44z m-2213 19 c-7 -8 -18 -15 -24 -15 -6 0 -2 7 8 15 25 19
32 19 16 0z m2054 0 c-4 -8 -11 -15 -16 -15 -6 0 -5 6 2 15 7 8 14 15 16 15 2
0 1 -7 -2 -15z m346 -27 c-12 -18 -33 -41 -47 -52 l-25 -18 15 29 c17 33 68
86 75 78 3 -2 -5 -19 -18 -37z m669 25 c-26 -33 -55 -58 -87 -76 -56 -32 -32
13 35 63 44 34 74 41 52 13z m215 -21 c-41 -37 -104 -68 -104 -52 0 13 112 89
130 89 9 0 -3 -16 -26 -37z m-1018 -20 c-16 -30 -66 -70 -66 -52 0 12 71 92
77 86 3 -2 -2 -17 -11 -34z m-3415 -27 c-46 -31 -88 -54 -94 -52 -11 3 150
106 168 107 5 0 -28 -25 -74 -55z m1065 40 c-22 -17 -46 -20 -46 -6 0 11 18
19 45 20 20 0 20 0 1 -14z m2914 -10 c-13 -14 -28 -25 -33 -25 -6 0 0 11 13
25 13 14 28 25 33 25 6 0 0 -11 -13 -25z m-3780 11 c0 -3 -4 -8 -10 -11 -5 -3
-10 -1 -10 4 0 6 5 11 10 11 6 0 10 -2 10 -4z m4325 -9 c-53 -36 -157 -87
-144 -71 30 37 105 84 134 84 28 0 28 -1 10 -13z m-4415 -1 c0 -1 -22 -17 -50
-34 -27 -17 -50 -28 -50 -24 0 4 19 19 43 34 39 26 57 33 57 24z m868 -8 c-3
-7 -13 -15 -24 -17 -16 -3 -17 -1 -5 13 16 19 34 21 29 4z m3053 -5 c-10 -19
-47 -55 -69 -68 -20 -11 -1 22 33 58 29 31 51 37 36 10z m160 -44 c-29 -28
-56 -47 -60 -44 -3 4 18 29 47 57 29 28 56 47 60 43 4 -4 -17 -29 -47 -56z
m-1142 29 c-7 -13 -21 -36 -33 -53 -12 -16 -21 -41 -21 -55 0 -22 -5 -25 -42
-28 -24 -2 -43 0 -43 4 0 15 42 52 54 48 13 -5 31 16 66 74 22 36 37 44 19 10z
m-2782 -10 c-3 -8 -6 -5 -6 6 -1 11 2 17 5 13 3 -3 4 -12 1 -19z m3494 5 c-18
-31 -35 -49 -65 -68 l-29 -19 11 21 c15 27 71 83 83 83 6 0 6 -7 0 -17z m812
10 c9 -8 -29 -34 -106 -74 -75 -39 -65 -21 21 36 70 47 75 49 85 38z m-1313
-27 c0 -19 -49 -76 -50 -58 0 14 37 72 46 72 2 0 4 -6 4 -14z m634 0 c-7 -19
-83 -71 -91 -62 -8 8 24 38 63 59 36 20 34 20 28 3z m176 5 c0 -11 -67 -71
-80 -71 -17 0 -11 9 27 45 37 35 53 43 53 26z m-3920 -5 c0 -3 -4 -8 -10 -11
-5 -3 -10 -1 -10 4 0 6 5 11 10 11 6 0 10 -2 10 -4z m955 -6 c-3 -5 -11 -10
-16 -10 -6 0 -7 5 -4 10 3 6 11 10 16 10 6 0 7 -4 4 -10z m2055 2 c0 -5 -11
-19 -25 -32 -28 -26 -33 -16 -9 18 15 22 34 30 34 14z m290 -2 c0 -13 -60 -80
-71 -80 -13 0 3 28 35 63 26 29 36 33 36 17z m141 -18 c-5 -10 -26 -31 -46
-46 -19 -15 -47 -38 -62 -52 -26 -24 -43 -31 -43 -16 0 7 65 62 74 62 4 0 22
18 42 40 38 41 54 47 35 12z m185 -17 c-32 -27 -48 -32 -40 -12 5 15 57 48 63
41 3 -3 -8 -16 -23 -29z m834 23 c0 -7 -36 -32 -80 -56 -44 -24 -80 -40 -80
-35 0 8 140 103 153 103 4 0 7 -6 7 -12z m-4611 -1 c-2 -1 -13 -9 -24 -17 -19
-14 -19 -14 -6 3 7 9 18 17 24 17 6 0 8 -1 6 -3z m41 -17 c-14 -11 -32 -20
-40 -20 -8 0 -1 9 15 19 39 26 57 26 25 1z m75 10 c-3 -5 -11 -10 -16 -10 -6
0 -7 5 -4 10 3 6 11 10 16 10 6 0 7 -4 4 -10z m65 3 c0 -12 -70 -55 -83 -50
-6 2 9 15 33 30 50 30 50 30 50 20z m1020 3 c0 -3 -4 -8 -10 -11 -5 -3 -10 -1
-10 4 0 6 5 11 10 11 6 0 10 -2 10 -4z m2109 -17 c-12 -24 -62 -70 -68 -63 -2
2 4 16 14 31 31 47 77 74 54 32z m615 9 c-13 -24 -39 -50 -59 -61 -19 -9 -19
-9 -5 9 29 39 54 64 62 64 5 0 6 -6 2 -12z m336 8 c0 -7 -44 -33 -70 -41 -21
-7 -22 -6 -9 6 30 28 79 50 79 35z m45 -36 c-44 -38 -95 -70 -112 -70 -15 0
73 83 102 96 54 24 57 15 10 -26z m-815 17 c0 -17 -68 -92 -77 -84 -7 8 24 56
51 79 26 21 26 21 26 5z m620 5 c0 -13 -61 -67 -108 -96 -30 -19 -54 -26 -78
-24 l-35 3 33 16 c18 9 44 22 58 28 14 6 44 27 68 46 43 34 62 43 62 27z
m-2985 -12 c-3 -5 -11 -10 -16 -10 -6 0 -7 5 -4 10 3 6 11 10 16 10 6 0 7 -4
4 -10z m1926 -13 c-10 -9 -11 -8 -5 6 3 10 9 15 12 12 3 -3 0 -11 -7 -18z
m-1991 -1 c0 -2 -7 -7 -16 -10 -8 -3 -12 -2 -9 4 6 10 25 14 25 6z m2114 -23
c-6 -23 -5 -25 15 -20 17 4 21 2 19 -11 -2 -12 -16 -18 -47 -20 -65 -5 -82 5
-45 27 16 10 35 25 43 34 19 24 22 21 15 -10z m466 21 c0 -3 -9 -17 -20 -31
-28 -36 -25 -48 8 -25 54 37 58 38 39 9 -22 -33 -16 -34 31 -2 44 30 56 32 42
5 -14 -26 -8 -25 46 6 59 34 69 22 19 -22 -34 -29 -47 -34 -91 -34 -75 0 -204
12 -203 19 0 7 111 80 122 81 4 0 7 -3 7 -6z m268 -50 c-30 -28 -56 -44 -72
-44 -39 0 -31 15 20 39 25 12 55 31 67 41 11 11 23 17 26 14 3 -3 -15 -25 -41
-50z m411 8 c-73 -55 -109 -77 -109 -64 0 15 136 110 159 111 8 1 -15 -21 -50
-47z m331 40 c0 -5 -10 -13 -22 -19 -106 -50 -140 -64 -144 -61 -2 3 24 23 59
45 58 38 107 54 107 35z m-3684 -27 c-11 -8 -28 -15 -37 -15 -10 0 -26 -2 -36
-5 -10 -3 0 3 22 14 49 24 79 27 51 6z m174 0 c-7 -8 -17 -15 -22 -15 -6 0 -5
7 2 15 7 8 17 15 22 15 6 0 5 -7 -2 -15z m1924 -7 c-9 -30 -10 -32 -29 -25
-19 8 -20 27 0 27 8 0 15 5 15 10 0 6 5 10 11 10 6 0 8 -9 3 -22z m272 -11
c-2 -13 -11 -23 -24 -25 -28 -4 -28 9 -2 26 12 7 18 18 14 24 -4 7 -3 8 4 4 7
-4 10 -17 8 -29z m-2261 3 c-3 -5 -13 -10 -21 -10 -8 0 -12 5 -9 10 3 6 13 10
21 10 8 0 12 -4 9 -10z m188 -21 c-23 -40 -39 -52 -54 -43 -8 5 -7 9 5 16 9 5
16 16 16 24 0 11 24 28 48 33 2 1 -5 -13 -15 -30z m2870 -19 c-38 -37 -59 -50
-81 -50 -16 0 -32 3 -35 7 -11 11 14 33 38 33 12 0 28 7 36 16 12 15 64 42 84
43 6 0 -13 -22 -42 -49z m557 35 c0 -15 -167 -101 -177 -92 -7 7 141 106 160
107 9 0 17 -7 17 -15z m-3695 -15 c-3 -5 -13 -10 -21 -10 -8 0 -12 5 -9 10 3
6 13 10 21 10 8 0 12 -4 9 -10z m2385 0 c0 -5 -4 -10 -10 -10 -5 0 -10 5 -10
10 0 6 5 10 10 10 6 0 10 -4 10 -10z m1000 6 c0 -9 -106 -75 -173 -107 -49
-23 -71 -29 -78 -22 -8 8 -3 16 19 27 17 9 37 16 45 16 7 0 49 20 93 45 74 42
94 51 94 41z m-3440 -14 c0 -10 -67 -32 -95 -32 -29 0 -9 12 42 26 27 7 49 13
51 13 1 1 2 -3 2 -7z m-1084 -26 c28 -13 54 -30 57 -39 8 -20 -45 -70 -66 -61
-22 8 -64 65 -73 98 -8 34 12 34 82 2z m4864 4 c0 -11 -41 -34 -80 -45 -17 -4
-11 3 20 24 48 33 60 37 60 21z m-1535 -20 c55 -6 201 -15 325 -20 218 -9 336
-21 367 -38 11 -7 -3 -24 -64 -79 -82 -74 -207 -173 -217 -173 -3 0 -3 7 0 15
10 25 -4 18 -67 -35 -87 -73 -110 -83 -174 -75 -38 5 -59 14 -74 31 -11 13
-32 24 -45 24 -19 0 -27 8 -36 35 -13 38 -40 48 -40 14 0 -36 -18 -58 -42 -52
-39 10 -45 20 -38 67 6 44 -2 86 -18 86 -5 0 -29 -29 -55 -65 -27 -38 -52 -62
-59 -59 -7 2 -29 27 -48 54 -48 68 -62 65 -41 -8 11 -39 10 -39 -84 -13 -39
10 -90 22 -115 26 -25 4 -68 13 -97 21 -45 13 -62 13 -140 0 -48 -8 -99 -17
-113 -19 -14 -1 -35 -9 -48 -16 -13 -6 -44 -15 -70 -18 -26 -3 -50 -10 -54
-16 -3 -6 -26 -18 -51 -27 -37 -14 -52 -15 -80 -7 -39 13 -82 67 -53 67 9 0
16 5 16 10 0 20 29 9 32 -12 3 -21 5 -21 23 10 11 19 31 35 45 38 14 3 37 12
53 20 15 8 32 12 38 9 5 -4 18 0 28 9 10 9 45 26 77 37 32 11 86 33 119 49
159 75 224 104 270 116 57 15 360 11 530 -6z m970 -15 c-42 -36 -90 -50 -64
-19 14 17 78 53 94 53 6 1 -8 -15 -30 -34z m245 27 c0 -5 -37 -30 -82 -57 -46
-27 -90 -57 -98 -67 -14 -17 -17 -17 -38 -3 -26 19 -21 35 11 36 12 0 60 22
107 49 90 51 100 55 100 42z m130 4 c0 -9 -160 -106 -208 -126 -29 -13 -51
-25 -48 -27 6 -6 67 14 146 48 36 15 79 33 95 39 30 10 30 10 8 -8 -11 -10
-59 -34 -105 -52 -88 -35 -125 -58 -73 -46 l30 7 -35 -25 -35 -24 -40 23 c-21
12 -40 27 -42 31 -3 13 50 47 172 109 98 49 135 63 135 51z m-4096 -31 c3 -8
1 -15 -4 -15 -6 0 -10 7 -10 15 0 8 2 15 4 15 2 0 6 -7 10 -15z m541 -10 c-22
-7 -44 -10 -50 -6 -5 3 6 9 25 12 57 10 68 8 25 -6z m248 -12 c13 -67 13 -68
-13 -68 -19 0 -25 5 -25 22 0 32 -12 38 -25 13 -9 -18 -9 -24 0 -30 23 -14 1
-28 -57 -35 -32 -3 -112 -15 -178 -25 -136 -21 -261 -32 -252 -24 17 17 243
63 313 63 35 1 54 6 57 15 3 8 18 17 34 19 59 10 -96 -1 -179 -12 -48 -7 -98
-11 -110 -9 -24 3 163 53 275 73 64 11 67 11 67 -7 0 -18 3 -18 31 6 39 33 55
33 62 -1z m-488 9 c-11 -10 -183 -62 -202 -62 -24 0 -13 30 13 36 117 30 207
42 189 26z m4013 -4 c-5 -14 -98 -50 -98 -38 0 5 14 14 30 22 17 7 30 16 30
20 0 5 9 8 21 8 12 0 19 -5 17 -12z m-4328 -85 c0 -13 -4 -23 -9 -23 -13 0
-34 57 -26 70 10 15 34 -18 35 -47z m4357 41 c3 -9 -115 -64 -137 -64 -25 0
-5 18 53 47 62 32 78 35 84 17z m-4087 -30 c-166 -54 -180 -58 -187 -50 -14
14 25 37 68 40 24 2 73 13 109 24 36 11 76 20 90 20 14 1 -22 -15 -80 -34z
m3247 10 c4 -13 -377 -299 -411 -308 -21 -5 -21 -5 0 12 12 9 50 37 84 62 35
25 68 50 74 55 6 6 29 23 51 40 22 16 71 58 109 93 64 59 85 69 93 46z m593
-12 c-57 -35 -100 -54 -100 -44 0 14 104 69 135 71 6 0 -10 -12 -35 -27z
m-4455 -13 c27 -16 51 -21 98 -21 71 2 60 -12 -18 -22 -45 -7 -54 -4 -87 21
-21 15 -37 31 -38 36 0 11 6 9 45 -14z m4504 -18 c-13 -10 -40 -22 -59 -26
-31 -6 -33 -5 -20 8 8 9 31 20 50 25 52 15 55 14 29 -7z m162 -28 c-30 -27
-61 -52 -70 -57 -9 -5 -53 -35 -98 -68 -91 -65 -111 -74 -56 -24 46 40 204
156 214 156 3 0 9 9 12 20 3 13 14 20 28 20 20 0 16 -7 -30 -47z m-3525 21
c-41 -15 -175 -31 -165 -20 9 10 129 34 169 35 l35 0 -39 -15z m2777 -9 c-10
-13 -23 -25 -30 -25 -6 0 -13 -4 -15 -8 -1 -5 -30 -26 -63 -47 -53 -33 -57
-34 -35 -10 31 33 138 115 151 115 6 0 2 -11 -8 -25z m-3428 -34 c-79 -28
-109 -31 -70 -8 27 16 94 35 125 35 14 1 -11 -12 -55 -27z m695 21 c0 -10
-184 -43 -222 -41 -14 1 -6 5 17 10 22 4 67 14 100 22 71 18 105 20 105 9z
m2640 4 c0 -2 -8 -10 -17 -17 -16 -13 -17 -12 -4 4 13 16 21 21 21 13z m-2385
-36 c3 -5 1 -10 -4 -10 -6 0 -11 5 -11 10 0 6 2 10 4 10 3 0 8 -4 11 -10z
m2675 6 c0 -3 -4 -8 -10 -11 -5 -3 -10 -1 -10 4 0 6 5 11 10 11 6 0 10 -2 10
-4z m200 -11 c-10 -9 -24 -12 -40 -8 -22 6 -22 7 -4 14 10 4 28 8 39 8 17 1
18 -1 5 -14z m-3520 -10 c-30 -7 -73 -20 -95 -29 -22 -8 -51 -15 -65 -16 -14
0 -77 -11 -140 -24 -63 -14 -116 -23 -118 -21 -2 2 -1 12 2 22 10 31 116 60
116 32 0 -11 5 -11 95 12 105 26 164 37 210 37 l50 0 -55 -13z m508 -3 c2 -7
-7 -12 -23 -12 -24 0 -26 2 -15 15 14 17 31 16 38 -3z m642 -7 c-7 -9 -15 -13
-18 -10 -3 2 1 11 8 20 7 9 15 13 18 10 3 -2 -1 -11 -8 -20z m2460 21 c0 -6
-203 -151 -260 -185 -30 -18 -80 -48 -110 -67 -30 -18 -59 -34 -65 -34 -5 0
76 56 180 125 105 69 195 129 201 133 33 23 54 34 54 28z m-3485 -16 c-11 -5
-31 -8 -45 -8 l-25 0 25 8 c14 4 34 8 45 8 l20 1 -20 -9z m3865 -4 c0 -19 -37
-63 -45 -54 -4 3 3 20 16 37 26 35 29 37 29 17z m-630 0 c0 -3 -4 -8 -10 -11
-5 -3 -10 -1 -10 4 0 6 5 11 10 11 6 0 10 -2 10 -4z m-2685 -16 c3 -5 1 -10
-4 -10 -6 0 -11 5 -11 10 0 6 2 10 4 10 3 0 8 -4 11 -10z m-90 -10 c3 -5 1
-10 -4 -10 -6 0 -11 5 -11 10 0 6 2 10 4 10 3 0 8 -4 11 -10z m2434 -25 c-24
-19 -48 -35 -53 -35 -12 0 -8 4 40 40 55 42 66 37 13 -5z m39 -23 c-86 -68
-128 -95 -134 -89 -10 10 171 142 199 146 5 1 -25 -25 -65 -57z m542 45 c0
-15 -349 -259 -362 -255 -18 6 -13 23 7 26 11 2 63 35 115 72 94 67 232 160
237 160 2 0 3 -2 3 -3z m-2955 -17 c3 -5 1 -10 -4 -10 -6 0 -11 5 -11 10 0 6
2 10 4 10 3 0 8 -4 11 -10z m3014 -7 c-19 -22 -89 -73 -102 -73 -10 0 19 25
78 67 37 26 41 28 24 6z m-3091 -23 c22 -30 28 -50 15 -50 -7 0 -38 45 -51 73
-10 20 17 3 36 -23z m50 1 c3 -8 -1 -12 -9 -9 -7 2 -15 10 -17 17 -3 8 1 12 9
9 7 -2 15 -10 17 -17z m2662 -5 c-20 -20 -131 -86 -144 -86 -19 0 19 30 84 65
72 39 81 42 60 21z m-2820 -5 c0 -12 -20 -25 -27 -18 -7 7 6 27 18 27 5 0 9
-4 9 -9z m55 -1 c3 -5 1 -10 -4 -10 -6 0 -11 5 -11 10 0 6 2 10 4 10 3 0 8 -4
11 -10z m2354 -12 c-29 -29 -126 -98 -137 -98 -7 0 -12 -4 -12 -10 0 -5 -13
-10 -30 -10 -34 0 -42 20 -7 20 12 1 60 27 107 59 79 55 111 70 79 39z m-3399
-23 c-7 -8 -17 -15 -22 -15 -6 0 -23 -9 -39 -21 -17 -12 -45 -22 -64 -24 -18
-2 -43 -9 -55 -15 -14 -8 -20 -8 -16 -1 4 6 24 18 44 27 20 9 59 27 86 40 59
28 85 32 66 9z m1279 -11 c3 -16 1 -17 -13 -5 -19 16 -21 34 -3 29 6 -3 14
-13 16 -24z m2541 22 c0 -2 -8 -10 -17 -17 -16 -13 -17 -12 -4 4 13 16 21 21
21 13z m-2800 -16 c0 -5 -4 -10 -10 -10 -5 0 -12 -1 -15 -1 -2 -1 -37 -8 -77
-15 -40 -7 -80 -14 -88 -16 -8 -2 -17 1 -20 6 -6 11 16 16 100 23 36 3 69 9
75 14 12 12 35 11 35 -1z m60 0 c0 -5 -2 -10 -4 -10 -3 0 -8 5 -11 10 -3 6 -1
10 4 10 6 0 11 -4 11 -10z m466 -17 c-7 -7 -26 7 -26 19 0 6 6 6 15 -2 9 -7
13 -15 11 -17z m-297 -7 c8 -9 8 -16 2 -20 -6 -4 -15 3 -21 14 -12 23 2 27 19
6z m397 0 c7 -17 -15 -61 -24 -51 -4 4 -7 20 -7 36 0 30 21 40 31 15z m2404
-11 c-12 -13 -40 -36 -62 -51 -44 -31 -45 -42 -2 -20 77 38 124 37 92 -1 -15
-20 -10 -17 62 29 41 27 43 27 18 4 -45 -41 -32 -40 32 4 33 22 60 39 60 36 0
-2 -23 -23 -51 -45 -57 -45 -53 -56 5 -16 36 24 52 24 19 -1 -17 -12 -16 -15
10 -39 l28 -26 52 38 c48 35 51 36 35 11 -25 -38 -22 -43 11 -19 l29 21 -11
-29 c-9 -24 -6 -47 16 -128 14 -54 31 -116 37 -139 12 -48 44 -93 134 -188 36
-39 63 -73 59 -77 -9 -8 -119 -39 -263 -74 -52 -12 -153 -41 -225 -63 -133
-42 -386 -111 -440 -120 -49 -8 -19 11 48 31 126 37 204 58 262 73 33 8 67 19
75 23 8 5 41 16 73 25 31 9 57 21 57 26 0 14 -2 14 -114 -24 -206 -68 -308
-96 -326 -86 -9 5 -26 6 -38 3 -13 -3 -22 -1 -22 5 0 15 94 42 146 42 42 0 67
14 42 23 -7 2 6 14 30 26 23 12 40 26 37 30 -2 5 2 14 10 21 14 12 13 16 -6
37 -39 40 -101 24 -63 -18 26 -29 4 -23 -28 8 -24 23 -32 25 -46 16 -9 -6 -45
-26 -79 -44 -54 -28 -65 -31 -88 -21 -14 7 -28 19 -31 27 -13 32 11 43 201 99
l50 15 -55 -4 c-231 -19 -280 -18 -280 3 0 5 28 16 63 26 34 10 72 22 85 27
13 5 34 6 47 3 14 -3 50 1 82 11 32 9 74 20 93 25 19 5 53 13 75 19 22 5 61
13 88 16 26 4 47 10 47 14 0 4 -20 17 -46 29 -49 24 -50 37 -4 47 16 4 32 11
35 16 8 12 -30 11 -76 -2 -32 -10 -42 -9 -64 5 -14 9 -25 21 -25 27 0 5 36 26
80 46 44 20 80 40 80 44 0 14 -16 11 -52 -9 -31 -17 -123 -42 -154 -42 -32 0
-9 27 44 52 31 15 66 34 77 42 22 17 20 17 -90 -18 -70 -22 -88 -20 -124 13
l-31 29 80 51 c91 58 110 65 60 21 -46 -41 -11 -23 75 39 80 57 88 61 55 26z
m-695 -20 c-17 -13 -36 -24 -44 -25 -17 0 -15 2 29 33 44 30 54 24 15 -8z
m-2250 17 c-10 -11 -195 -28 -208 -20 -7 4 6 8 28 9 22 0 51 4 65 9 31 9 124
11 115 2z m115 -8 c0 -14 -3 -14 -15 -4 -8 7 -15 14 -15 16 0 2 7 4 15 4 8 0
15 -7 15 -16z m85 6 c3 -5 1 -10 -4 -10 -6 0 -11 5 -11 10 0 6 2 10 4 10 3 0
8 -4 11 -10z m2293 -4 c-10 -7 -18 -18 -18 -24 0 -15 -45 -37 -90 -46 l-35 -6
35 21 c19 12 51 32 70 45 37 24 67 32 38 10z m197 4 c-3 -5 -27 -24 -53 -42
-26 -17 -51 -38 -55 -45 -10 -16 -87 -18 -87 -2 0 14 26 39 41 39 8 0 8 -5 -2
-17 -25 -29 37 -7 100 37 61 43 65 45 56 30z m-2335 -42 c0 -6 -7 -5 -15 2 -8
7 -15 17 -15 22 0 6 7 5 15 -2 8 -7 15 -17 15 -22z m120 22 c0 -5 -2 -10 -4
-10 -3 0 -8 5 -11 10 -3 6 -1 10 4 10 6 0 11 -4 11 -10z m-292 -20 c10 -17 10
-20 -5 -20 -28 0 -63 12 -63 20 0 5 10 11 23 13 12 2 24 5 27 6 3 0 11 -8 18
-19z m-182 -7 c23 -10 33 -18 24 -20 -25 -6 -93 12 -98 25 -5 17 29 15 74 -5z
m79 7 c3 -5 1 -10 -4 -10 -6 0 -11 5 -11 10 0 6 2 10 4 10 3 0 8 -4 11 -10z
m155 -5 c7 -9 19 -14 27 -11 7 3 21 -3 30 -14 11 -13 19 -16 24 -9 7 13 29 4
29 -12 0 -14 -31 -11 -64 6 -15 8 -36 15 -46 15 -10 0 -20 9 -23 20 -6 24 5
26 23 5z m220 -16 c0 -4 -7 -6 -15 -3 -8 4 -15 10 -15 15 0 4 7 6 15 3 8 -4
15 -10 15 -15z m-1815 1 c4 -6 -11 -10 -37 -10 -38 0 -76 -11 -170 -49 -16 -6
-28 -8 -28 -5 0 3 14 10 31 16 44 15 22 33 -28 22 -21 -4 -51 -7 -68 -5 -36 3
-58 20 -29 22 10 1 84 5 164 9 80 3 148 7 152 8 4 1 10 -2 13 -8z m4515 6 c0
-2 -8 -10 -17 -17 -16 -13 -17 -12 -4 4 13 16 21 21 21 13z m-2645 -16 c3 -5
1 -10 -4 -10 -6 0 -11 5 -11 10 0 6 2 10 4 10 3 0 8 -4 11 -10z m-2259 -26
c-22 -8 -41 -12 -44 -9 -7 6 39 24 63 24 11 0 3 -7 -19 -15z m-16 -38 c0 -2
-9 -6 -20 -9 -11 -3 -18 -1 -14 4 5 9 34 13 34 5z m-95 -41 c-65 -31 -84 -31
-25 0 25 12 52 23 60 23 8 0 -7 -10 -35 -23z m-370 -10 c-16 -8 -39 -14 -50
-14 -13 0 -8 5 15 14 46 18 74 17 35 0z m282 -31 c-3 -3 -12 -4 -19 -1 -8 3
-5 6 6 6 11 1 17 -2 13 -5z m-422 -23 c-19 -17 -167 -92 -177 -89 -5 2 30 25
79 51 84 44 119 58 98 38z m91 -47 c-37 -19 -70 -33 -73 -30 -7 6 106 64 127
64 8 1 -16 -15 -54 -34z m4671 14 c18 -13 33 -31 33 -40 0 -46 -77 -65 -121
-29 l-24 19 35 36 c19 20 37 36 39 36 3 0 20 -10 38 -22z m-4621 -29 c-32 -17
-60 -28 -63 -26 -6 6 88 55 107 55 8 1 -11 -13 -44 -29z m4364 -58 c33 -34 57
-50 86 -56 24 -5 32 -10 21 -13 -10 -2 -33 2 -50 9 -37 16 -138 109 -118 109
8 0 35 -22 61 -49z m-4514 24 c-20 -15 -36 -19 -36 -10 0 5 38 23 50 24 3 0
-4 -6 -14 -14z m4717 -82 c-7 -2 -19 -2 -25 0 -7 3 -2 5 12 5 14 0 19 -2 13
-5z m1783 -142 c-26 -28 -176 -134 -182 -128 -7 7 120 111 160 131 40 20 43
20 22 -3z m-6811 -11 c-9 -10 -15 -26 -11 -35 4 -11 -10 -26 -44 -51 -28 -20
-50 -40 -50 -45 0 -14 9 -11 37 11 14 11 36 20 50 20 23 0 23 -1 8 -30 -9 -16
-20 -30 -25 -30 -18 0 -108 -60 -114 -77 -11 -28 1 -26 49 7 25 17 51 30 58
27 6 -2 -17 -20 -52 -41 -35 -20 -66 -35 -69 -32 -8 8 -15 142 -9 168 8 29
141 120 186 127 2 1 -4 -8 -14 -19z m6213 -131 c-13 -38 -19 -40 -208 -79
-179 -36 -229 -47 -285 -61 -22 -6 -62 -12 -90 -13 -27 -2 -108 -15 -178 -30
-71 -15 -131 -25 -134 -23 -2 3 11 8 29 12 18 4 37 10 43 13 5 3 73 23 150 43
77 21 174 47 215 59 41 12 102 28 135 36 33 8 74 19 90 24 81 25 227 58 237
53 4 -2 2 -17 -4 -34z m-1003 15 c34 -22 32 -28 -15 -47 -39 -15 -41 -15 -67
8 -24 19 -25 25 -14 39 17 21 65 21 96 0z m-107 -44 c37 -23 35 -34 -5 -45
-15 -3 -51 -17 -80 -31 -29 -13 -58 -21 -65 -18 -20 9 -71 74 -64 81 12 12 69
4 108 -17 46 -24 65 -18 31 10 -13 10 -23 23 -23 29 0 18 63 12 98 -9z m-226
-67 l42 -28 -95 -6 c-79 -6 -96 -4 -106 9 -25 31 -16 45 22 38 19 -4 35 -3 34
1 -6 33 40 27 103 -14z m1298 3 c0 -38 -21 -51 -101 -65 -41 -8 -117 -22 -169
-32 -52 -10 -133 -23 -179 -28 -45 -5 -88 -14 -94 -20 -7 -7 -16 -7 -29 0 -12
6 -25 6 -38 -1 -11 -6 -20 -8 -20 -4 0 3 -7 1 -15 -6 -8 -6 -22 -9 -32 -6 -27
9 -393 -72 -393 -86 0 -12 20 -9 70 8 25 9 82 17 126 19 45 1 96 7 115 13 33
10 186 38 339 62 41 6 91 15 110 20 19 5 84 16 143 25 60 8 112 17 117 20 5 3
12 0 16 -6 3 -6 1 -14 -5 -18 -21 -13 -401 -81 -686 -122 -103 -15 -276 -49
-304 -60 -13 -6 -53 -12 -89 -15 -37 -3 -70 -8 -75 -11 -5 -3 -8 0 -5 8 3 8
25 22 49 31 24 9 36 17 27 17 -9 1 -29 -4 -44 -9 -34 -13 -40 -7 -26 25 8 16
20 25 35 25 13 0 27 4 32 8 6 5 73 23 150 41 77 18 150 36 161 41 12 5 43 11
70 14 57 7 41 -1 -76 -34 -41 -12 -79 -26 -85 -32 -7 -7 -4 -9 10 -5 11 4 56
16 100 27 44 12 96 26 115 32 44 14 128 34 245 57 144 29 337 70 375 80 55 14
60 13 60 -13z m-1514 -7 c47 -29 41 -59 -11 -59 -11 0 -55 61 -55 76 0 11 36
2 66 -17z m-4710 -28 c-23 -26 -113 -81 -120 -73 -7 7 33 52 47 52 5 0 20 9
34 20 14 11 33 20 41 20 13 0 13 -3 -2 -19z m5374 -9 c0 -5 -19 -14 -42 -21
-24 -7 -52 -16 -63 -21 -41 -19 -98 -40 -106 -40 -20 0 -7 20 16 26 14 3 25
11 25 18 0 6 21 18 48 27 52 18 122 24 122 11z m-5415 -106 c-33 -30 -63 -52
-67 -49 -5 2 -8 17 -8 34 0 22 5 29 20 29 11 0 34 9 52 20 62 37 63 20 3 -34z
m5160 3 c-16 -8 -14 -8 11 -5 18 3 45 8 60 12 24 5 27 4 17 -7 -16 -16 -143
-50 -143 -37 0 5 7 11 15 14 12 5 13 10 4 20 -9 11 -5 14 22 13 29 0 31 -2 14
-10z m2675 -9 c0 -5 -15 -16 -34 -25 -19 -9 -42 -25 -52 -36 -17 -19 -44 -26
-44 -11 0 4 17 18 38 32 20 14 39 28 42 31 5 6 30 17 43 18 4 1 7 -3 7 -9z
m-7805 -29 c18 -7 17 -9 -10 -26 -31 -20 -74 -64 -75 -77 0 -16 20 -7 51 21
60 55 75 43 19 -15 -30 -29 -60 -54 -67 -54 -9 0 -13 15 -13 47 0 39 5 52 32
80 34 36 34 35 63 24z m7850 -11 c-10 -11 -22 -20 -27 -20 -4 0 -3 9 4 20 7
11 19 20 27 20 11 0 10 -5 -4 -20z m-51 -2 c-20 -33 -39 -51 -90 -93 -43 -34
-79 -33 -56 1 9 14 134 103 145 104 5 0 5 -5 1 -12z m106 -23 c0 -8 -10 -21
-22 -28 -122 -75 -181 -113 -198 -129 -23 -22 -50 -24 -50 -3 0 15 71 75 131
110 47 27 53 29 45 16 -14 -22 11 -10 39 19 31 32 55 39 55 15z m-1750 -9 c0
-20 -12 -26 -78 -41 -31 -8 -65 -17 -74 -20 -21 -8 -24 13 -5 38 21 29 157 49
157 23z m1790 -36 c0 -12 -78 -70 -94 -70 -5 0 8 18 29 40 37 38 65 51 65 30z
m-3274 -15 c-11 -8 -25 -15 -30 -15 -6 0 -2 7 8 15 11 8 25 15 30 15 6 0 2 -7
-8 -15z m1421 -40 c-26 -24 -57 -33 -57 -18 0 17 36 43 59 43 l26 -1 -28 -24z
m1744 8 c-33 -58 -186 -172 -205 -153 -16 16 2 37 64 76 34 22 80 51 103 66
50 33 50 33 38 11z m-3156 -3 c-3 -5 -14 -10 -23 -10 -15 0 -15 2 -2 10 20 13
33 13 25 0z m1335 1 c0 -14 -41 -41 -62 -41 -25 0 -23 16 4 34 25 18 58 21 58
7z m1958 -6 c-3 -14 -88 -73 -88 -61 0 10 71 76 81 76 6 0 9 -7 7 -15z m-7958
-2 c0 -10 -82 -93 -92 -93 -21 0 -5 48 24 72 31 26 68 37 68 21z m6079 -69
c-12 -13 -29 -24 -38 -24 -10 0 -6 9 14 30 15 16 32 27 37 24 5 -4 -1 -17 -13
-30z m-6049 17 c0 -12 -108 -101 -121 -101 -24 0 0 34 59 83 34 27 62 35 62
18z m5974 -25 c-33 -29 -44 -32 -44 -12 0 17 18 32 45 38 30 6 30 1 -1 -26z
m-64 15 c0 -15 -54 -54 -58 -42 -6 18 18 51 38 51 11 0 20 -4 20 -9z m2036 -6
c-11 -8 -24 -15 -30 -15 -5 0 -1 7 10 15 10 8 24 14 29 14 6 0 1 -6 -9 -14z
m-1856 -15 c0 -5 -5 -10 -11 -10 -5 0 -7 5 -4 10 3 6 8 10 11 10 2 0 4 -4 4
-10z m60 0 c0 -5 -7 -10 -16 -10 -8 0 -12 5 -9 10 3 6 10 10 16 10 5 0 9 -4 9
-10z m1773 -48 c-47 -42 -123 -87 -123 -73 0 8 53 57 86 79 66 45 90 41 37 -6z
m-7933 11 c0 -3 -18 -24 -40 -46 -23 -22 -39 -42 -36 -45 7 -7 -13 -42 -24
-42 -6 0 -10 16 -10 35 0 30 7 40 48 70 46 34 62 41 62 28z m6224 -29 c-43
-35 -65 -29 -26 7 18 16 38 27 44 23 6 -4 -1 -16 -18 -30z m-250 -11 c-31 -24
-44 -29 -44 -14 0 15 51 51 63 44 6 -4 -2 -16 -19 -30z m-124 7 c-6 -11 -19
-24 -30 -30 -16 -9 -20 -8 -20 5 0 22 21 44 43 45 15 0 16 -3 7 -20z m58 -6
c-14 -15 -32 -24 -39 -22 -17 6 25 48 48 48 14 0 13 -5 -9 -26z m129 6 c-14
-11 -29 -20 -33 -20 -4 0 1 9 11 20 10 11 25 20 33 20 9 0 6 -7 -11 -20z m58
-7 c-18 -16 -31 -21 -33 -14 -5 14 26 40 48 40 10 0 4 -9 -15 -26z m1897 -1
c-11 -15 -33 -34 -49 -42 -15 -8 -41 -23 -57 -34 -28 -18 -28 -18 -18 0 19 36
103 102 130 103 9 1 7 -7 -6 -27z m38 -40 c0 -20 -77 -69 -88 -57 -4 4 9 20
28 36 33 28 60 37 60 21z m-2235 -23 c-8 -12 -35 -12 -35 0 0 11 22 20 33 14
4 -2 5 -9 2 -14z m250 0 c-4 -5 -13 -9 -22 -9 -13 0 -13 3 -3 15 13 15 35 11
25 -6z m205 11 c0 -5 -12 -10 -27 -10 -22 0 -25 2 -13 10 20 13 40 13 40 0z
m-6250 -10 c0 -11 -89 -74 -96 -67 -4 4 84 76 94 77 1 0 2 -4 2 -10z m5850 6
c0 -2 -7 -6 -15 -10 -8 -3 -15 -1 -15 4 0 6 7 10 15 10 8 0 15 -2 15 -4z m65
-6 c-3 -5 -13 -10 -21 -10 -8 0 -12 5 -9 10 3 6 13 10 21 10 8 0 12 -4 9 -10z
m60 0 c-3 -5 -11 -10 -16 -10 -6 0 -7 5 -4 10 3 6 11 10 16 10 6 0 7 -4 4 -10z
m170 0 c-3 -5 -10 -10 -16 -10 -5 0 -9 5 -9 10 0 6 7 10 16 10 8 0 12 -4 9
-10z m59 -45 c-7 -17 -39 -29 -54 -20 -17 10 9 35 36 35 16 0 22 -4 18 -15z
m1846 -5 c0 -13 -7 -20 -19 -20 -11 0 -28 -3 -38 -7 -14 -5 -13 -1 6 20 29 32
51 35 51 7z m-2310 -5 c-7 -8 -16 -12 -21 -9 -13 8 -1 24 18 24 13 0 13 -3 3
-15z m125 5 c-3 -5 -11 -10 -16 -10 -6 0 -7 5 -4 10 3 6 11 10 16 10 6 0 7 -4
4 -10z m230 0 c-3 -5 -10 -10 -16 -10 -5 0 -9 5 -9 10 0 6 7 10 16 10 8 0 12
-4 9 -10z m-6161 -55 c-29 -22 -42 -17 -15 6 13 11 26 17 29 14 3 -3 -3 -12
-14 -20z m5727 -60 c-11 -20 -21 -41 -21 -46 0 -6 -26 -40 -57 -75 -32 -36
-77 -86 -100 -112 -23 -26 -37 -49 -32 -53 5 -3 -4 -20 -21 -37 -39 -41 -39
-17 0 45 17 26 30 52 30 58 0 18 209 269 218 261 2 -3 -5 -21 -17 -41z m-5691
7 c0 -9 -43 -52 -52 -52 -4 0 -8 12 -8 28 0 23 4 27 30 28 17 1 30 -1 30 -4z
m-15 -72 c-3 -5 -14 -10 -23 -10 -15 0 -15 2 -2 10 20 13 33 13 25 0z m5705
-23 c0 -1 -24 -25 -52 -52 -47 -45 -42 -35 17 31 17 20 35 30 35 21z m-5672
-39 c-6 -18 -57 -53 -65 -44 -4 4 6 18 21 31 31 27 50 32 44 13z m12 -68 c0
-5 -12 -21 -27 -34 -36 -34 -57 -17 -23 19 24 25 50 33 50 15z m-119 -103 c-8
-8 -11 -5 -11 9 0 27 14 41 18 19 2 -9 -1 -22 -7 -28z m1 -61 c-14 -28 -18
-30 -20 -14 -4 20 14 48 29 48 5 0 1 -15 -9 -34z m-4 -86 c-15 -23 -28 -26
-28 -7 0 17 10 27 27 27 11 0 11 -4 1 -20z m2 -71 c-12 -22 -30 -25 -30 -6 0
17 21 38 32 31 4 -3 3 -14 -2 -25z m-8 -81 c-14 -15 -22 -18 -22 -9 0 15 32
43 39 35 3 -3 -5 -14 -17 -26z m2 -53 c-4 -8 -10 -12 -15 -9 -14 8 -10 24 6
24 9 0 12 -6 9 -15z m26 -22 c0 -5 -7 -16 -15 -26 -7 -11 -11 -25 -8 -33 3 -8
0 -14 -6 -14 -15 0 -14 67 2 73 19 8 27 8 27 0z m680 -74 c13 -23 -3 -51 -24
-43 -8 3 -17 -8 -23 -28 l-11 -33 -1 33 c-1 49 -15 32 -40 -50 -12 -40 -26
-82 -31 -93 -15 -34 -12 7 5 61 8 27 15 50 15 52 0 1 -6 2 -14 2 -13 0 -45
-108 -61 -207 -4 -24 -11 -45 -16 -49 -12 -7 -11 33 2 76 29 96 37 136 29 144
-5 5 -15 -6 -24 -25 -11 -26 -15 -29 -15 -13 -2 35 155 194 191 194 4 0 12 -9
18 -21z m-680 -64 c-7 -8 -16 -15 -21 -15 -5 0 -9 7 -9 15 0 9 9 15 21 15 18
0 19 -2 9 -15z m20 -48 c0 -7 -5 -18 -11 -24 -8 -8 -7 -20 5 -44 9 -18 16 -40
16 -49 0 -18 -26 -58 -33 -50 -3 3 -8 41 -12 84 -5 60 -3 81 7 87 19 12 28 11
28 -4z m661 -18 c-5 -13 -10 -19 -10 -12 -1 15 10 45 15 40 3 -2 0 -15 -5 -28z
m10 -144 c-22 -91 -29 -110 -30 -80 0 22 6 63 14 90 9 28 21 68 27 90 6 22 12
35 15 30 2 -6 -10 -65 -26 -130z m-85 99 c-4 -9 -9 -15 -11 -12 -3 3 -3 13 1
22 4 9 9 15 11 12 3 -3 3 -13 -1 -22z m58 -31 c-3 -27 -10 -52 -15 -57 -11
-13 -11 -8 2 54 14 63 22 65 13 3z m70 -47 c-3 -15 -8 -25 -11 -23 -2 3 -1 17
3 31 3 15 8 25 11 23 2 -3 1 -17 -3 -31z m-309 -14 c-3 -18 -14 -32 -26 -35
-24 -6 -24 -2 2 40 25 39 34 37 24 -5z m-375 -38 c0 -30 -28 -94 -41 -94 -16
0 -10 83 8 102 22 25 33 23 33 -8z m707 -14 c-6 -22 -13 -38 -15 -36 -6 7 10
76 18 76 4 0 2 -18 -3 -40z m-396 -92 c-11 -40 -22 -84 -24 -98 -2 -14 -5 1
-6 32 0 31 3 59 8 62 5 3 12 23 16 43 8 44 17 62 22 46 3 -7 -5 -45 -16 -85z
m376 20 c-3 -8 -6 -5 -6 6 -1 11 2 17 5 13 3 -3 4 -12 1 -19z m-310 -10 c-3
-8 -6 -5 -6 6 -1 11 2 17 5 13 3 -3 4 -12 1 -19z m-367 -23 c0 -41 -26 -99
-40 -90 -16 10 -12 71 5 85 8 7 15 19 15 26 0 8 5 14 10 14 6 0 10 -16 10 -35z
m327 -7 c-3 -8 -6 -5 -6 6 -1 11 2 17 5 13 3 -3 4 -12 1 -19z m340 0 c-3 -8
-6 -5 -6 6 -1 11 2 17 5 13 3 -3 4 -12 1 -19z m73 -163 c-19 -91 -37 -165 -42
-165 -14 0 -9 52 17 160 39 158 46 183 52 176 3 -3 -9 -80 -27 -171z m5302
123 c-16 -20 -72 -50 -72 -39 0 12 51 50 69 51 10 0 11 -3 3 -12z m-5719 -23
c4 -8 2 -17 -3 -20 -6 -4 -10 3 -10 14 0 25 6 27 13 6z m6617 -9 c0 -3 -4 -8
-10 -11 -5 -3 -10 -1 -10 4 0 6 5 11 10 11 6 0 10 -2 10 -4z m-6950 -61 c-17
-21 -30 -19 -30 5 0 11 7 20 15 20 8 0 16 6 16 13 1 6 3 4 6 -6 3 -10 -1 -24
-7 -32z m550 27 c0 -28 59 -210 90 -277 15 -33 47 -81 71 -106 38 -40 56 -51
129 -73 47 -15 130 -31 185 -37 55 -6 127 -20 160 -31 54 -18 150 -65 179 -89
6 -5 45 -35 86 -66 69 -53 73 -58 49 -61 -15 -2 -62 10 -105 27 -98 37 -214
71 -243 71 -12 0 -29 4 -39 10 -9 5 -46 21 -82 34 -36 13 -73 27 -82 31 -10 4
-18 3 -18 -3 0 -6 12 -15 28 -20 15 -6 59 -23 97 -37 39 -15 84 -31 100 -35
75 -20 298 -102 333 -123 153 -88 214 -129 269 -182 36 -33 60 -61 54 -63 -10
-3 -22 1 -131 51 -30 14 -91 40 -135 57 -44 17 -91 38 -105 45 -103 56 -300
112 -440 126 -121 12 -284 61 -334 100 -13 11 -28 19 -33 19 -9 0 -91 59 -119
85 -33 31 -36 71 -18 192 5 33 27 63 46 63 6 0 47 -38 92 -84 69 -71 189 -166
210 -166 20 0 -1 24 -47 53 -51 33 -149 134 -220 227 -33 44 -34 48 -40 163
-3 68 -2 117 4 117 5 0 9 -8 9 -18z m5445 -27 c-39 -32 -55 -32 -18 0 15 13
33 24 38 24 6 0 -3 -11 -20 -24z m-5718 -27 c-3 -7 -5 -2 -5 12 0 14 2 19 5
13 2 -7 2 -19 0 -25z m544 -28 l-10 -25 0 27 c-1 14 2 35 6 45 7 17 8 17 11
-2 1 -12 -2 -32 -7 -45z m609 26 c9 -12 0 -29 -54 -90 -55 -63 -129 -160 -199
-260 -9 -13 -20 -17 -31 -13 -16 7 -16 10 5 44 12 21 49 76 81 122 33 46 57
86 53 89 -7 7 -8 6 -90 -103 -37 -49 -75 -104 -83 -122 -16 -33 -42 -45 -42
-19 0 23 27 78 70 141 22 33 40 63 40 68 0 30 -44 -29 -138 -183 -30 -48 -27
-20 3 40 14 27 25 55 25 62 -1 20 -39 -32 -66 -89 -27 -57 -51 -72 -39 -25 3
15 13 40 21 56 8 16 12 31 10 34 -9 8 -31 -22 -54 -70 -12 -27 -25 -48 -28
-48 -4 0 -4 23 0 51 9 65 -14 64 -29 -2 -9 -41 -10 -42 -13 -13 -2 17 4 64 14
105 28 129 29 133 11 126 -11 -4 -14 -2 -11 7 6 14 46 31 154 65 108 34 140
38 261 40 91 1 119 -2 129 -13z m-1414 -40 c-9 -15 -21 -26 -26 -26 -16 0 -12
32 7 52 25 27 40 6 19 -26z m5974 7 c-1 -10 -77 -63 -91 -63 -6 0 8 16 31 35
41 34 60 43 60 28z m-5130 -26 c0 -12 -11 -73 -25 -135 -24 -107 -25 -140 -4
-127 5 4 9 1 9 -4 0 -13 -30 -14 -49 -2 -13 8 -12 21 2 93 24 112 49 198 59
198 4 0 8 -10 8 -23z m666 -44 l57 -67 -24 -16 c-31 -20 -174 -141 -219 -185
-20 -19 -39 -35 -43 -35 -22 0 2 35 78 115 46 50 84 94 85 99 0 13 -36 -18
-113 -98 -83 -87 -69 -44 17 51 31 33 56 64 56 67 0 20 -29 -6 -111 -99 -51
-58 -96 -105 -101 -105 -14 0 26 69 84 147 66 89 157 193 168 193 5 0 34 -30
66 -67z m4463 11 c-15 -19 -89 -67 -94 -62 -4 3 94 78 102 78 3 0 -1 -7 -8
-16z m-5973 -19 c4 -8 1 -22 -5 -29 -10 -11 -9 -16 4 -23 13 -8 13 -11 1 -28
-8 -11 -17 -18 -19 -15 -5 5 -10 70 -8 98 1 17 20 15 27 -3z m739 -52 c-10
-79 -28 -106 -21 -31 6 56 14 88 23 88 2 0 1 -26 -2 -57z m5235 18 c0 -11 -41
-41 -80 -60 -17 -9 -12 0 18 28 43 40 62 50 62 32z m-4380 -65 c13 -17 18 -11
-87 -93 -34 -26 -87 -70 -118 -97 -43 -38 -59 -46 -68 -37 -9 9 6 29 68 90 78
75 170 151 185 151 4 0 13 -6 20 -14z m-1580 -30 c0 -7 -7 -19 -15 -26 -16
-13 -20 -3 -9 24 8 20 24 21 24 2z m1642 -56 c17 -27 35 -50 39 -50 21 0 6
-37 -20 -53 -16 -9 -64 -46 -107 -82 -43 -36 -82 -65 -86 -65 -11 0 -17 15
-10 26 9 13 133 116 158 130 10 7 16 15 12 19 -7 8 -103 -56 -163 -108 -37
-33 -55 -38 -55 -17 0 14 90 98 148 137 45 32 64 53 47 53 -11 0 -62 -35 -146
-102 -48 -37 -90 -68 -93 -68 -19 0 1 33 47 76 64 61 179 154 190 154 4 0 22
-22 39 -50z m4318 35 c-7 -9 -15 -13 -17 -11 -7 7 7 26 19 26 6 0 6 -6 -2 -15z
m-5960 -55 c-6 -11 -15 -20 -20 -20 -6 0 -10 9 -10 20 0 13 7 20 20 20 18 0
19 -3 10 -20z m10 -69 c-15 -29 -30 -35 -30 -13 0 22 8 32 27 32 10 0 11 -5 3
-19z m1732 -38 c28 -25 22 -39 -36 -78 -29 -19 -74 -53 -99 -75 -44 -39 -67
-49 -67 -31 0 11 88 91 148 134 24 17 39 33 34 35 -12 4 -109 -62 -167 -113
-42 -37 -55 -43 -55 -22 0 27 170 167 204 167 11 0 28 -7 38 -17z m-1732 -38
c-15 -29 -30 -33 -30 -9 0 17 31 46 39 38 2 -2 -2 -15 -9 -29z m7031 -2 c-8
-15 -10 -15 -11 -2 0 17 10 32 18 25 2 -3 -1 -13 -7 -23z m-5229 -50 c9 -16
24 -37 32 -48 47 -59 144 -193 154 -211 9 -18 4 -28 -34 -75 -24 -29 -44 -57
-44 -61 0 -17 18 -6 60 37 24 25 50 45 56 45 22 0 28 -23 9 -36 -9 -7 -39 -33
-65 -58 -52 -50 -75 -57 -85 -27 -3 10 -15 21 -25 24 -27 7 -25 23 5 43 26 17
33 34 14 34 -6 0 -22 -9 -37 -20 -20 -16 -27 -18 -34 -8 -9 15 43 68 67 68 8
0 15 7 15 15 0 24 -24 17 -71 -19 -23 -19 -47 -32 -51 -30 -20 13 -4 37 49 71
35 24 50 39 40 41 -8 2 -38 -13 -65 -32 -27 -20 -52 -36 -55 -36 -10 0 -87 78
-87 88 0 10 63 69 114 107 22 16 34 31 28 33 -11 3 -90 -46 -127 -81 -32 -30
-55 -40 -55 -24 0 19 54 71 112 109 47 29 59 60 15 36 -29 -15 -131 -98 -135
-109 -5 -12 -32 -12 -32 0 0 20 173 151 199 151 9 0 24 -12 33 -27z m5188 7
c-10 -6 -11 -10 -3 -10 7 0 10 -7 7 -15 -4 -8 -2 -15 3 -15 5 0 10 -10 11 -22
2 -23 -32 -198 -48 -253 -5 -16 -14 -73 -20 -125 -6 -52 -15 -107 -20 -122
-22 -67 -466 -566 -485 -546 -3 3 8 22 25 44 16 21 30 42 30 47 0 4 11 25 25
47 34 53 32 70 -5 70 -23 0 -30 5 -30 19 0 21 37 78 80 124 17 18 28 37 26 44
-3 6 5 14 17 18 14 4 17 8 10 12 -16 6 -17 33 -2 33 5 0 7 5 3 11 -4 8 -9 7
-15 -2 -7 -11 -9 -11 -9 -1 0 7 -4 10 -10 7 -5 -3 -10 0 -10 8 0 19 11 28 24
20 18 -12 36 -12 36 -1 0 6 -6 8 -14 5 -14 -6 -31 19 -18 25 4 2 18 18 31 36
13 18 29 31 36 28 7 -2 16 2 19 10 3 9 1 12 -4 9 -23 -14 -7 12 38 59 114 124
136 155 126 180 -10 26 -21 19 -63 -41 -22 -32 -58 -78 -80 -102 -23 -25 -41
-49 -41 -54 0 -5 -7 -6 -16 -3 -8 3 -12 2 -9 -4 3 -5 -6 -21 -21 -35 -30 -28
-33 -29 -53 -16 -11 7 -9 13 8 30 11 11 26 21 31 21 17 0 33 53 21 72 -8 12
-6 18 7 23 16 6 16 7 0 16 -15 8 -16 13 -5 29 6 11 15 20 19 20 3 0 33 28 65
61 103 109 164 161 180 155 6 -3 17 2 23 10 7 8 9 14 4 14 -5 0 11 18 34 41
24 22 47 38 50 34 4 -3 0 -10 -8 -15z m-6990 -65 c-7 -9 -15 -13 -17 -11 -7 7
7 26 19 26 6 0 6 -6 -2 -15z m0 -55 c0 -5 -5 -10 -11 -10 -5 0 -7 5 -4 10 3 6
8 10 11 10 2 0 4 -4 4 -10z m20 -57 c0 -10 -5 -25 -10 -33 -15 -22 -32 7 -19
32 12 23 29 23 29 1z m0 -73 c0 -5 -5 -10 -11 -10 -5 0 -7 5 -4 10 3 6 8 10
11 10 2 0 4 -4 4 -10z m5973 -102 c4 -40 2 -45 -9 -33 -15 14 -19 76 -7 89 9
9 10 5 16 -56z m-3905 -36 c2 -7 -2 -12 -8 -12 -6 0 -36 -20 -67 -45 -55 -45
-73 -54 -73 -35 0 14 120 112 133 107 6 -2 13 -9 15 -15z m4532 -12 c0 -5 -2
-10 -4 -10 -3 0 -8 5 -11 10 -3 6 -1 10 4 10 6 0 11 -4 11 -10z m-4502 -19
c-6 -19 -120 -101 -131 -94 -7 4 0 15 17 27 16 12 42 33 60 48 30 27 61 37 54
19z m3871 -13 c-1 -7 -5 -24 -9 -38 -7 -22 -8 -21 -9 13 -1 20 4 37 9 37 6 0
10 -6 9 -12z m-5968 -45 c-10 -17 -10 -16 -11 3 0 23 13 41 18 25 2 -6 -1 -18
-7 -28z m2139 23 c0 -7 -109 -86 -120 -86 -21 0 -8 16 41 53 44 32 79 47 79
33z m76 -70 c37 -32 38 -34 14 -33 -14 0 -37 -3 -52 -7 -33 -10 -38 8 -8 24
11 6 20 15 20 20 0 18 -36 10 -70 -15 -36 -27 -50 -31 -50 -15 0 13 71 60 91
60 8 0 33 -15 55 -34z m-2206 -1 c0 -8 -2 -15 -4 -15 -2 0 -6 7 -10 15 -3 8
-1 15 4 15 6 0 10 -7 10 -15z m5937 -46 c-5 -4 -6 -12 -3 -18 4 -6 2 -11 -3
-11 -12 0 -15 53 -4 64 4 4 10 -1 14 -11 3 -10 2 -21 -4 -24z m-5934 -29 c-3
-11 -7 -20 -9 -20 -2 0 -4 9 -4 20 0 11 4 20 9 20 5 0 7 -9 4 -20z m5765 -18
c64 -32 82 -46 82 -68 0 -34 -14 -43 -204 -129 -149 -67 -202 -112 -319 -269
-21 -28 -47 -69 -57 -91 -9 -22 -34 -56 -54 -75 -20 -19 -53 -59 -72 -87 -61
-91 -69 -62 -14 47 16 30 47 95 69 145 130 284 221 409 336 464 28 12 59 28
70 34 25 13 107 46 118 47 4 0 25 -8 45 -18z m139 -54 c-3 -8 -6 -5 -6 6 -1
11 2 17 5 13 3 -3 4 -12 1 -19z m-10 -60 c-3 -8 -6 -5 -6 6 -1 11 2 17 5 13 3
-3 4 -12 1 -19z m-35 -110 c-6 -6 -7 0 -4 19 5 21 7 23 10 9 2 -10 0 -22 -6
-28z m-16 -55 c-10 -10 -19 5 -10 18 6 11 8 11 12 0 2 -7 1 -15 -2 -18z m-35
-88 c-12 -25 -21 -49 -21 -55 0 -5 -4 -10 -9 -10 -5 0 -2 23 7 50 9 28 20 50
24 50 5 0 6 5 3 10 -3 6 -3 16 2 23 18 29 13 -27 -6 -68z m-196 -44 c28 -46
129 -126 151 -119 15 3 54 -13 54 -22 0 -14 -33 -28 -50 -22 -12 4 -13 2 -2
-9 22 -24 16 -27 -39 -20 -4 1 -18 10 -33 22 l-26 20 28 24 c15 14 22 25 16
25 -7 0 -15 -7 -18 -16 -5 -13 -9 -14 -21 -4 -10 9 -15 9 -15 1 0 -20 -18 -12
-26 12 -5 12 -7 25 -6 30 1 4 -2 7 -8 7 -5 0 -17 14 -26 32 -9 18 -23 39 -31
47 -13 12 -16 12 -24 0 -12 -20 -11 -2 1 22 18 32 44 22 75 -30z m165 -35 c0
-3 -4 -8 -10 -11 -5 -3 -10 -1 -10 4 0 6 5 11 10 11 6 0 10 -2 10 -4z m230
-110 c0 -9 -39 -13 -51 -5 -10 6 -4 9 19 9 17 0 32 -2 32 -4z m-85 -16 c3 -5
2 -10 -4 -10 -5 0 -13 5 -16 10 -3 6 -2 10 4 10 5 0 13 -4 16 -10z m182 -42
c-3 -7 -5 -2 -5 12 0 14 2 19 5 13 2 -7 2 -19 0 -25z m-267 2 c0 -5 -9 -10
-20 -10 -11 0 -20 5 -20 10 0 6 9 10 20 10 11 0 20 -4 20 -10z m237 -72 c-3
-8 -6 -5 -6 6 -1 11 2 17 5 13 3 -3 4 -12 1 -19z"/>
<path d="M6105 6045 c-20 -15 -43 -32 -50 -38 -7 -7 -23 -20 -36 -31 -135
-108 -330 -299 -442 -434 -42 -51 -77 -96 -77 -100 0 -8 43 36 190 196 82 89
165 169 286 272 36 32 151 117 173 130 11 6 13 12 5 20 -7 7 -21 3 -49 -15z"/>
<path d="M6142 6007 c-26 -24 -62 -57 -81 -73 -134 -113 -363 -346 -485 -493
-65 -78 -29 -56 56 35 195 209 331 343 446 441 67 58 122 111 122 119 0 21 -7
18 -58 -29z"/>
<path d="M6170 5958 c-252 -225 -368 -337 -438 -427 -57 -72 -43 -81 16 -11
83 98 185 201 262 264 41 33 88 73 104 88 16 15 48 42 72 60 42 32 57 58 32
58 -7 0 -29 -15 -48 -32z"/>
<path d="M6093 5823 c-229 -214 -361 -349 -349 -361 4 -3 48 37 99 89 50 52
115 115 142 140 141 125 255 233 255 240 0 22 -29 1 -147 -108z"/>
<path d="M6032 5687 c-183 -183 -236 -242 -183 -205 10 7 103 94 206 193 103
99 191 182 196 183 14 5 11 32 -3 31 -7 0 -104 -91 -216 -202z"/>
<path d="M5349 5413 c-13 -16 -12 -17 4 -4 16 13 21 21 13 21 -2 0 -10 -8 -17
-17z"/>
<path d="M3484 5304 c-21 -75 -21 -76 -8 -80 11 -5 41 123 31 133 -3 3 -13
-21 -23 -53z"/>
<path d="M9334 4213 c10 -11 36 -12 36 -2 0 5 -10 9 -22 9 -12 0 -18 -3 -14
-7z"/>
<path d="M9235 4150 c10 -11 20 -20 23 -20 3 0 -3 9 -13 20 -10 11 -20 20 -23
20 -3 0 3 -9 13 -20z"/>
<path d="M5400 1287 c-61 -43 -95 -75 -88 -83 7 -6 147 96 147 109 1 13 -13 7
-59 -26z"/>
<path d="M5435 1261 c-35 -21 -85 -70 -85 -82 0 -16 16 -9 41 17 13 14 44 38
68 55 50 33 28 43 -24 10z"/>
<path d="M10577 1383 c-3 -4 -4 -31 -3 -60 1 -28 -1 -50 -5 -47 -9 5 -19 -22
-19 -52 0 -13 -4 -24 -10 -24 -5 0 -10 -7 -10 -15 0 -12 3 -12 18 3 42 43 53
71 49 132 -3 58 -10 80 -20 63z"/>
<path d="M10490 1179 c0 -11 4 -18 10 -14 5 3 7 12 3 20 -7 21 -13 19 -13 -6z"/>
<path d="M9230 411 c0 -5 6 -14 14 -20 12 -10 13 -8 9 8 -5 21 -23 30 -23 12z"/>
<path d="M9285 330 c3 -5 14 -10 23 -10 15 0 15 2 2 10 -20 13 -33 13 -25 0z"/>
<path d="M9445 250 c3 -5 8 -10 11 -10 2 0 4 5 4 10 0 6 -5 10 -11 10 -5 0 -7
-4 -4 -10z"/>
<path d="M9360 235 c0 -8 7 -15 15 -15 9 0 12 6 9 15 -4 8 -10 15 -15 15 -5 0
-9 -7 -9 -15z"/>
<path d="M5970 4686 c0 -9 7 -16 16 -16 9 0 14 5 12 12 -6 18 -28 21 -28 4z"/>
<path d="M6260 4671 c0 -5 15 -11 33 -14 37 -6 188 -34 232 -43 53 -12 18 8
-42 23 -63 16 -191 42 -210 42 -7 1 -13 -3 -13 -8z"/>
<path d="M5945 4650 c-8 -13 -1 -24 14 -19 6 3 7 10 2 18 -6 10 -10 10 -16 1z"/>
<path d="M5900 4611 c0 -5 6 -14 14 -20 16 -13 32 2 21 19 -8 12 -35 13 -35 1z"/>
<path d="M5870 4536 c0 -9 7 -16 16 -16 9 0 14 5 12 12 -6 18 -28 21 -28 4z"/>
<path d="M5836 4505 c4 -8 13 -15 21 -15 13 0 13 3 3 15 -7 8 -16 15 -21 15
-5 0 -6 -7 -3 -15z"/>
<path d="M6560 4460 c-30 -11 -56 -20 -58 -20 -2 0 -1 -4 3 -10 3 -5 12 -7 20
-3 9 3 15 -1 15 -11 0 -9 5 -16 11 -16 8 0 8 -4 1 -12 -13 -17 3 -58 22 -58 7
0 16 -7 20 -15 4 -11 -2 -15 -27 -16 -40 0 -147 -41 -144 -54 2 -11 8 -11 52
3 27 8 31 7 32 -9 1 -12 -5 -19 -17 -19 -13 0 -18 -7 -17 -20 1 -11 7 -20 15
-20 7 0 11 4 8 8 -2 4 12 6 31 4 l36 -5 -24 -19 c-15 -12 -18 -18 -7 -15 9 3
22 -1 28 -9 7 -8 18 -14 25 -14 7 0 15 -7 19 -15 3 -10 20 -15 48 -15 45 -1
91 -23 66 -33 -7 -3 13 -6 45 -6 61 -1 77 -17 27 -27 -41 -9 -38 -24 4 -24 19
0 38 -4 41 -10 3 -5 -3 -10 -14 -10 -30 0 -36 -19 -9 -29 13 -5 26 -7 31 -4 4
2 7 -3 7 -11 0 -9 9 -16 20 -16 35 0 22 -19 -22 -32 l-43 -13 75 -6 c41 -3 63
-6 48 -7 -37 -3 -59 -12 -52 -23 3 -5 38 -7 77 -5 l72 5 -62 -11 c-35 -6 -63
-15 -63 -19 0 -5 54 -9 120 -9 73 0 120 -4 120 -10 0 -5 -17 -10 -37 -10 -21
0 -62 -3 -91 -7 -66 -7 -50 -23 24 -23 28 0 73 -3 100 -7 48 -7 48 -7 15 -13
-48 -7 -50 -26 -4 -24 123 6 184 6 190 0 3 -3 -8 -6 -25 -6 -18 0 -32 -4 -32
-9 0 -12 87 -20 230 -22 63 -1 103 -3 87 -6 -37 -6 -24 -23 18 -23 19 0 37 -4
40 -10 4 -6 60 -10 136 -10 108 0 129 2 129 15 0 28 -38 55 -76 55 -31 0 -35
2 -24 15 10 12 8 17 -16 27 -16 7 -29 20 -29 28 0 9 -11 16 -27 18 -16 2 -28
9 -28 17 0 8 -17 16 -41 20 -30 5 -38 10 -30 18 20 20 12 37 -19 37 -20 0 -30
5 -30 16 0 8 -16 22 -35 30 -20 8 -33 19 -30 24 3 6 -3 10 -14 10 -11 0 -26 8
-33 18 -7 10 -33 24 -58 32 l-45 15 35 6 c34 5 33 5 -19 13 -39 6 -55 13 -58
26 -6 22 -74 41 -118 34 -28 -5 -29 -4 -11 10 10 8 24 17 30 20 6 2 0 12 -14
22 -14 10 -35 29 -48 41 -13 13 -28 23 -33 23 -6 0 -23 9 -37 21 -17 13 -34
18 -50 14 -30 -7 -46 3 -32 20 9 11 4 17 -22 29 -18 8 -46 16 -63 18 -38 4
-38 21 1 29 48 10 2 23 -56 16 -54 -7 -73 6 -44 28 11 8 17 15 14 15 -3 1 -25
3 -49 5 -24 2 -47 7 -50 12 -13 20 -87 33 -119 22 -18 -6 -37 -8 -44 -6 -8 4
-4 8 10 12 12 4 22 11 22 16 0 12 -5 11 -70 -11z m17 -26 c-3 -3 -12 -4 -19
-1 -8 3 -5 6 6 6 11 1 17 -2 13 -5z m117 -163 c6 -9 -24 -16 -101 -26 -18 -2
-35 1 -38 6 -4 5 3 9 14 9 12 0 21 5 21 10 0 13 97 13 104 1z"/>
<path d="M5797 4430 c-13 -12 -15 -20 -7 -25 6 -4 18 1 25 11 27 36 13 46 -18
14z"/>
<path d="M5760 4366 c0 -8 -3 -21 -6 -30 -4 -10 -1 -16 9 -16 15 0 30 37 21
52 -8 13 -24 9 -24 -6z"/>
<path d="M5721 4292 c-15 -27 -14 -32 4 -32 20 0 31 28 17 42 -7 7 -14 4 -21
-10z"/>
<path d="M5181 4185 c-23 -30 -53 -62 -67 -71 -14 -10 -23 -23 -20 -31 3 -8
-7 -21 -27 -33 -44 -27 -58 -25 -25 4 15 13 24 27 21 30 -3 3 13 33 36 66 55
79 45 77 -15 -2 -48 -64 -70 -86 -112 -117 -13 -9 -24 -29 -26 -44 -1 -15 -11
-37 -22 -50 -25 -28 -57 -75 -74 -107 l-13 -24 29 24 c16 14 30 27 30 30 2 19
29 51 54 63 41 21 48 3 10 -24 -16 -13 -30 -30 -30 -39 0 -8 -16 -32 -36 -53
-20 -21 -34 -40 -31 -43 12 -12 57 30 77 70 15 31 31 48 60 61 22 10 43 15 46
12 13 -13 -29 -59 -69 -78 -31 -13 -36 -19 -20 -19 37 0 16 -26 -44 -55 -62
-29 -67 -45 -7 -19 35 15 98 42 117 52 15 7 6 -19 -14 -39 -11 -11 -18 -23
-15 -27 8 -8 56 19 51 29 -15 24 61 83 93 72 7 -3 23 4 35 15 23 20 77 38 77
25 0 -33 -91 -85 -106 -61 -3 5 -16 1 -28 -10 -11 -11 -30 -24 -41 -30 -11 -7
-14 -12 -6 -12 8 0 11 -6 7 -16 -4 -9 9 -2 29 15 20 17 43 32 53 33 9 1 24 2
33 3 9 0 28 9 43 19 15 9 37 18 49 19 28 2 108 47 84 47 -15 0 -16 3 -7 20 6
12 22 26 35 32 13 6 21 16 19 23 -5 13 16 40 38 48 10 4 10 7 1 18 -11 10 -17
9 -36 -9 -13 -12 -29 -22 -36 -22 -10 0 -11 -3 -2 -14 9 -11 6 -18 -15 -35
-28 -22 -54 -28 -54 -12 0 6 10 17 22 25 12 9 27 30 32 48 8 24 22 39 55 54
l44 21 -29 6 c-21 4 -36 -1 -57 -19 -29 -24 -57 -32 -57 -15 0 19 59 71 82 72
21 1 20 2 -6 9 -23 7 -34 5 -54 -10 -25 -21 -52 -26 -52 -12 0 17 46 49 88 62
24 7 46 18 49 23 4 6 0 8 -10 4 -8 -3 -33 -9 -54 -13 -21 -3 -45 -12 -53 -19
-8 -7 -25 -18 -37 -24 -19 -10 -23 -9 -23 4 0 9 8 19 18 22 9 4 29 14 44 23
l28 17 -33 -1 c-18 -1 -46 -11 -61 -23 -29 -23 -64 -38 -72 -30 -3 2 11 23 31
47 37 45 40 50 26 50 -5 0 -27 -25 -50 -55z m37 -57 c-3 -7 -23 -23 -46 -36
-35 -20 -42 -21 -42 -8 0 9 17 24 38 35 45 23 55 25 50 9z m52 -27 c0 -13 -50
-51 -66 -51 -22 0 -16 17 12 39 28 22 54 28 54 12z m-106 -52 c-22 -25 -66
-49 -89 -49 -29 0 6 38 55 59 52 22 61 20 34 -10z m147 3 c-13 -25 -42 -48
-68 -55 -31 -7 -29 9 6 44 33 33 78 41 62 11z m-91 -19 c-1 -24 -74 -82 -87
-70 -9 10 18 47 45 61 31 17 42 19 42 9z m-186 -44 c-19 -21 -75 -52 -82 -45
-7 8 9 27 51 57 43 31 63 24 31 -12z m316 20 c0 -6 -13 -24 -30 -41 -16 -16
-30 -35 -30 -42 0 -18 -30 -42 -63 -50 -25 -6 -27 -5 -18 12 6 11 25 25 42 32
25 11 28 15 15 20 -15 5 -12 11 16 43 31 35 68 49 68 26z m-240 -28 c0 -15
-60 -61 -81 -61 -29 0 -23 17 18 45 39 26 63 32 63 16z m123 -35 c-10 -14 -29
-30 -42 -36 -17 -8 -21 -14 -13 -19 15 -9 -21 -45 -55 -56 -35 -10 -29 21 7
40 17 9 28 20 24 26 -9 16 21 54 58 72 38 19 47 8 21 -27z m-83 -10 c0 -14
-47 -59 -72 -69 -10 -4 -10 -7 0 -15 11 -7 7 -14 -16 -31 -32 -22 -62 -28 -62
-11 0 5 13 16 30 25 17 9 27 21 24 28 -6 17 32 66 60 77 30 12 36 12 36 -4z
m200 -36 c0 -19 -48 -60 -70 -60 -42 0 6 49 68 69 1 1 2 -4 2 -9z"/>
<path d="M5680 4230 c0 -5 5 -10 10 -10 6 0 10 5 10 10 0 6 -4 10 -10 10 -5 0
-10 -4 -10 -10z"/>
<path d="M5434 4131 c3 -5 15 -7 26 -4 28 7 25 13 -6 13 -14 0 -23 -4 -20 -9z"/>
<path d="M4856 3935 c-48 -68 -51 -75 -38 -75 4 0 18 19 32 41 14 23 37 47 52
55 18 9 25 20 22 29 -10 25 -21 17 -68 -50z"/>
<path d="M5447 3915 c-15 -19 -36 -35 -45 -36 -15 0 -15 -1 1 -7 16 -7 11 -17
-34 -82 -28 -41 -67 -96 -86 -122 -19 -27 -31 -48 -26 -48 4 0 22 22 40 48
125 183 163 228 207 242 l31 10 -33 -5 c-30 -4 -33 -3 -27 15 9 28 4 25 -28
-15z"/>
<path d="M5423 3778 c-22 -29 -49 -66 -59 -83 -10 -16 -37 -55 -60 -85 -43
-57 -68 -100 -60 -100 3 0 23 26 45 58 22 31 72 101 111 155 75 103 93 147 23
55z"/>
<path d="M5267 3778 c-14 -18 -30 -44 -37 -58 -10 -22 -9 -22 14 5 27 31 60
85 52 85 -3 0 -16 -15 -29 -32z"/>
<path d="M5490 3775 c-7 -9 -11 -18 -8 -20 3 -3 11 1 18 10 7 9 11 18 8 20 -3
3 -11 -1 -18 -10z"/>
<path d="M5488 3678 c-31 -46 -70 -96 -87 -112 -17 -17 -31 -35 -31 -41 0 -7
-9 -20 -20 -30 -11 -10 -20 -26 -20 -36 0 -16 3 -15 25 6 13 14 32 25 41 25
15 0 15 -3 -4 -23 -12 -13 -22 -28 -22 -34 0 -5 -30 -49 -66 -97 -36 -48 -64
-89 -62 -91 2 -3 39 43 83 100 43 57 85 107 93 110 28 10 33 -7 10 -34 -22
-25 -55 -70 -73 -101 -22 -37 28 16 70 76 28 39 56 66 70 70 26 6 35 24 13 24
-23 0 16 28 52 38 25 7 29 10 13 11 -26 1 -31 16 -8 25 8 3 15 11 15 17 0 7 8
18 18 25 16 13 16 13 -1 14 -9 0 -26 -5 -37 -12 -31 -20 -35 -1 -6 37 15 19
23 35 17 35 -5 0 -23 -17 -38 -37 -15 -21 -34 -42 -41 -46 -7 -5 -21 -18 -32
-29 -11 -12 -23 -18 -27 -13 -5 4 -2 10 5 12 6 3 10 8 8 12 -6 8 12 36 72 114
43 58 48 67 34 67 -5 0 -34 -37 -64 -82z m47 -98 c-3 -5 -11 -10 -16 -10 -6 0
-7 5 -4 10 3 6 11 10 16 10 6 0 7 -4 4 -10z m-35 -47 c-12 -8 -24 -12 -28 -8
-9 9 28 36 40 29 5 -4 0 -13 -12 -21z m-50 -1 c0 -11 -46 -32 -54 -25 -3 3 -1
12 5 20 13 14 49 18 49 5z m20 -47 c-14 -17 -40 -20 -40 -5 0 11 42 31 49 24
2 -2 -2 -10 -9 -19z"/>
<path d="M5146 3707 c-26 -34 -34 -53 -17 -43 10 7 53 76 46 76 -2 0 -15 -15
-29 -33z"/>
<path d="M5415 3670 c-27 -38 -74 -101 -102 -140 -29 -40 -53 -77 -52 -83 0
-7 8 -1 17 13 9 13 24 32 33 41 8 8 44 58 79 110 34 52 69 102 78 112 8 9 11
17 6 17 -5 0 -31 -31 -59 -70z"/>
<path d="M4828 3713 c7 -3 16 -2 19 1 4 3 -2 6 -13 5 -11 0 -14 -3 -6 -6z"/>
<path d="M4840 3675 c-30 -13 -50 -24 -45 -24 14 0 114 35 122 43 13 13 -23 4
-77 -19z"/>
<path d="M5654 3584 c4 -11 -3 -19 -24 -27 -17 -7 -29 -18 -27 -26 1 -9 -13
-22 -32 -32 -22 -10 -29 -18 -20 -21 10 -3 7 -11 -14 -30 -15 -14 -27 -30 -27
-35 0 -6 -16 -23 -35 -37 -19 -15 -35 -32 -35 -38 0 -6 -15 -29 -33 -52 -60
-73 -52 -72 21 2 65 67 92 84 94 57 0 -6 -8 -15 -19 -20 -11 -6 -18 -16 -15
-23 2 -8 -9 -28 -24 -45 -16 -17 -20 -25 -9 -17 10 8 32 30 48 48 16 17 38 32
48 32 26 0 24 -16 -6 -36 -14 -9 -25 -22 -25 -29 0 -6 -9 -20 -21 -31 -11 -10
-25 -28 -31 -39 -5 -11 13 4 41 33 28 28 55 52 61 52 5 0 10 9 10 19 0 11 10
27 22 35 22 16 68 22 68 10 0 -9 -53 -54 -62 -54 -5 0 -7 -5 -5 -12 1 -6 -8
-17 -20 -23 -13 -7 -20 -15 -17 -18 4 -3 -17 -34 -46 -67 -29 -33 -51 -63 -48
-65 2 -3 30 26 62 63 53 61 108 98 129 85 11 -7 -23 -43 -40 -43 -7 0 -13 -5
-13 -11 0 -6 -13 -30 -30 -54 -35 -51 -38 -62 -10 -38 19 16 60 28 60 17 0 -3
-12 -21 -26 -40 -29 -38 -28 -56 1 -24 10 11 24 20 31 20 7 0 11 6 8 14 -7 18
33 46 66 46 l25 -1 -27 -22 c-16 -13 -28 -29 -28 -36 0 -7 -11 -27 -25 -43
-30 -36 -25 -50 8 -21 24 22 67 36 67 22 0 -5 -12 -14 -26 -19 -14 -6 -22 -15
-19 -20 4 -6 1 -17 -5 -25 -17 -20 -3 -38 20 -25 24 13 35 -3 15 -20 -8 -7
-15 -19 -15 -27 0 -13 3 -13 25 1 38 25 48 19 24 -13 -12 -16 -19 -36 -16 -45
3 -8 2 -18 -3 -21 -15 -9 -12 -45 3 -51 7 -2 24 0 38 5 l24 10 -25 0 c-50 2 6
34 82 47 l73 13 -70 -5 c-65 -5 -68 -4 -51 10 11 9 34 17 50 17 l31 1 -30 8
c-25 6 -27 8 -13 14 24 11 12 29 -13 21 -11 -4 -19 -2 -19 4 0 6 10 11 22 11
12 0 18 3 15 7 -4 3 0 17 8 30 15 22 15 23 -15 23 -57 0 -25 39 43 52 30 5 19
6 -38 3 -71 -3 -78 -2 -61 11 11 8 29 15 40 15 17 1 18 2 4 6 -21 5 -23 14 -5
32 10 11 5 13 -25 8 -21 -3 -40 -2 -43 3 -9 15 26 40 56 40 16 0 29 5 29 10 0
6 -10 10 -22 10 -25 0 -14 15 17 23 11 3 -4 5 -32 6 -81 2 -63 18 28 26 45 4
93 11 107 16 30 10 -42 6 -131 -7 -41 -6 -47 -5 -41 9 3 9 18 21 32 27 23 9
20 9 -20 5 -54 -5 -62 7 -20 29 28 16 15 20 -25 10 -13 -4 -23 -12 -23 -19 0
-21 -27 -37 -57 -33 l-28 4 35 17 c19 9 29 16 22 17 -21 0 5 39 34 50 13 5 24
16 24 24 0 7 9 16 20 19 14 3 18 10 14 21 -6 15 -8 15 -30 1 -31 -20 -43 -12
-39 25 4 33 -10 41 -18 10 -3 -11 -17 -24 -31 -30 -14 -5 -26 -14 -26 -20 0
-5 -4 -10 -9 -10 -19 0 3 42 43 83 l42 42 -45 -3 -46 -3 24 21 c13 11 30 20
38 20 12 0 13 3 4 13 -8 10 -7 17 1 25 9 9 7 12 -11 12 -17 0 -22 -4 -17 -16z
m-4 -95 c0 -18 -89 -99 -110 -99 -27 0 -25 9 13 51 46 51 97 76 97 48z m54
-114 c-4 -8 -12 -15 -19 -15 -7 0 -20 -3 -29 -6 -9 -3 -16 -1 -16 5 0 11 33
29 57 30 7 1 10 -6 7 -14z m-99 -14 c6 -11 -33 -26 -43 -16 -4 3 0 10 8 15 19
12 27 12 35 1z m145 -109 c0 -16 -24 -32 -49 -32 -23 0 -24 1 -6 20 18 20 55
28 55 12z m-61 -63 c-8 -5 -21 -9 -29 -9 -12 1 -11 4 4 15 10 8 23 12 29 8 5
-3 3 -9 -4 -14z m79 -25 c-3 -2 -20 -7 -39 -11 -30 -6 -33 -5 -21 10 15 17 55
27 61 14 1 -5 1 -10 -1 -13z m-113 -21 c-22 -16 -59 -18 -50 -2 9 14 48 28 59
21 5 -3 1 -11 -9 -19z m121 -62 c-3 -5 -20 -14 -37 -20 -23 -8 -30 -8 -27 1 3
7 15 15 29 19 35 10 41 10 35 0z m-15 -101 c-24 -21 -41 -26 -41 -12 0 15 24
32 45 32 19 -1 19 -1 -4 -20z m44 -30 c-3 -5 -13 -10 -21 -10 -8 0 -12 5 -9
10 3 6 13 10 21 10 8 0 12 -4 9 -10z"/>
<path d="M5618 3583 c7 -3 16 -2 19 1 4 3 -2 6 -13 5 -11 0 -14 -3 -6 -6z"/>
<path d="M9085 3560 c-3 -5 1 -10 10 -10 9 0 13 5 10 10 -3 6 -8 10 -10 10 -2
0 -7 -4 -10 -10z"/>
<path d="M10717 3473 c-10 -10 -8 -23 4 -23 5 0 8 4 4 9 -3 5 3 12 12 14 14 4
15 5 2 6 -9 0 -19 -2 -22 -6z"/>
<path d="M5273 3378 c-38 -57 -45 -68 -41 -68 9 0 80 101 75 106 -2 3 -18 -14
-34 -38z"/>
<path d="M5765 3370 c-4 -6 5 -10 24 -8 17 1 31 6 31 10 0 12 -48 10 -55 -2z"/>
<path d="M11070 3187 c-48 -38 -187 -131 -290 -195 -66 -41 -9 -22 63 21 161
96 173 104 302 202 19 15 19 15 0 15 -11 0 -45 -19 -75 -43z"/>
<path d="M5870 3210 c0 -5 13 -10 29 -10 17 0 33 5 36 10 4 6 -8 10 -29 10
-20 0 -36 -4 -36 -10z"/>
<path d="M5220 3174 c0 -9 7 -14 17 -12 25 5 28 28 4 28 -12 0 -21 -6 -21 -16z"/>
<path d="M5875 3170 c-7 -12 29 -12 65 0 21 7 19 8 -17 9 -23 1 -45 -3 -48 -9z"/>
<path d="M9688 3112 c-37 -38 -68 -75 -68 -82 0 -15 98 77 131 123 35 47 8 30
-63 -41z"/>
<path d="M11086 3128 c-31 -23 -56 -45 -56 -50 0 -13 10 -9 40 15 55 44 74 57
82 57 4 0 8 5 8 10 0 18 -16 11 -74 -32z"/>
<path d="M9749 3094 c-65 -66 -78 -84 -62 -84 6 0 40 34 77 75 83 92 72 99
-15 9z"/>
<path d="M5180 3110 c0 -5 4 -10 9 -10 6 0 13 5 16 10 3 6 -1 10 -9 10 -9 0
-16 -4 -16 -10z"/>
<path d="M5878 3113 c7 -3 16 -2 19 1 4 3 -2 6 -13 5 -11 0 -14 -3 -6 -6z"/>
<path d="M5858 3073 c7 -3 16 -2 19 1 4 3 -2 6 -13 5 -11 0 -14 -3 -6 -6z"/>
<path d="M9440 3009 c0 -5 5 -7 10 -4 6 3 10 8 10 11 0 2 -4 4 -10 4 -5 0 -10
-5 -10 -11z"/>
<path d="M5097 2989 c-9 -6 -17 -14 -17 -19 0 -16 30 -11 37 5 8 21 1 25 -20
14z"/>
<path d="M5898 2983 c7 -3 16 -2 19 1 4 3 -2 6 -13 5 -11 0 -14 -3 -6 -6z"/>
<path d="M9394 2959 c-19 -22 -19 -22 4 -8 12 8 22 17 22 21 0 12 -6 9 -26
-13z"/>
<path d="M5047 2953 c-13 -12 -7 -33 8 -33 8 0 15 9 15 20 0 20 -11 26 -23 13z"/>
<path d="M5017 2885 c7 -32 36 -34 31 -3 -2 13 -10 24 -19 26 -13 2 -15 -3
-12 -23z"/>
<path d="M5898 2903 c7 -3 16 -2 19 1 4 3 -2 6 -13 5 -11 0 -14 -3 -6 -6z"/>
<path d="M8343 2886 c3 -7 1 -18 -5 -24 -11 -11 -4 -42 9 -42 16 0 32 57 20
69 -15 15 -30 14 -24 -3z"/>
<path d="M5165 2880 c-3 -5 1 -10 10 -10 9 0 13 5 10 10 -3 6 -8 10 -10 10 -2
0 -7 -4 -10 -10z"/>
<path d="M5217 2882 c-27 -5 -20 -20 16 -31 35 -11 77 -10 77 2 0 4 0 11 0 16
0 9 -64 18 -93 13z"/>
<path d="M5120 2869 c0 -5 5 -7 10 -4 6 3 10 8 10 11 0 2 -4 4 -10 4 -5 0 -10
-5 -10 -11z"/>
<path d="M5390 2830 c0 -5 5 -10 10 -10 6 0 10 5 10 10 0 6 -4 10 -10 10 -5 0
-10 -4 -10 -10z"/>
<path d="M8320 2795 c0 -8 5 -15 10 -15 6 0 10 7 10 15 0 8 -4 15 -10 15 -5 0
-10 -7 -10 -15z"/>
<path d="M5825 2790 c-27 -7 -27 -8 -5 -8 14 0 39 4 55 8 27 7 27 8 5 8 -14 0
-38 -4 -55 -8z"/>
<path d="M5520 2767 c0 -19 76 -91 84 -79 6 10 -60 92 -75 92 -5 0 -9 -6 -9
-13z"/>
<path d="M5838 2753 c6 -2 18 -2 25 0 6 3 1 5 -13 5 -14 0 -19 -2 -12 -5z"/>
<path d="M8270 2731 c-11 -28 -8 -51 9 -51 10 0 41 67 34 74 -14 14 -31 4 -43
-23z"/>
<path d="M5735 2741 c-16 -3 -25 -9 -19 -13 6 -4 30 -1 55 7 46 14 22 19 -36
6z"/>
<path d="M5848 2713 c7 -3 16 -2 19 1 4 3 -2 6 -13 5 -11 0 -14 -3 -6 -6z"/>
<path d="M5760 2700 c-20 -6 -21 -8 -5 -8 11 0 34 4 50 8 27 7 27 8 5 8 -14 0
-36 -4 -50 -8z"/>
<path d="M8245 2650 c3 -5 8 -10 11 -10 2 0 4 5 4 10 0 6 -5 10 -11 10 -5 0
-7 -4 -4 -10z"/>
<path d="M8210 2614 c0 -17 22 -14 28 4 2 7 -3 12 -12 12 -9 0 -16 -7 -16 -16z"/>
<path d="M8185 2570 c-3 -5 -1 -10 4 -10 6 0 11 5 11 10 0 6 -2 10 -4 10 -3 0
-8 -4 -11 -10z"/>
<path d="M8140 2481 c0 -11 5 -23 10 -26 6 -4 10 5 10 19 0 14 -4 26 -10 26
-5 0 -10 -9 -10 -19z"/>
<path d="M9905 2460 c-23 -10 -104 -80 -92 -80 13 0 48 24 86 57 38 35 39 37
6 23z"/>
<path d="M8097 2423 c-4 -3 -7 -13 -7 -21 0 -12 3 -12 15 -2 8 7 15 16 15 21
0 11 -14 12 -23 2z"/>
<path d="M8058 2355 c-12 -26 -4 -46 11 -29 5 5 12 19 16 32 9 31 -12 29 -27
-3z"/>
<path d="M8000 2284 c0 -8 5 -12 10 -9 6 4 8 11 5 16 -9 14 -15 11 -15 -7z"/>
<path d="M7914 2162 c-5 -4 -22 -23 -37 -43 -26 -35 -34 -59 -19 -59 6 1 73
84 80 102 5 10 -10 10 -24 0z"/>
<path d="M7785 1980 c-13 -24 -13 -30 -2 -30 11 0 37 39 37 55 0 16 -22 0 -35
-25z"/>
<path d="M7717 1892 c-20 -21 -37 -41 -37 -45 0 -13 23 -7 37 11 56 70 56 91
0 34z"/>
<path d="M7649 1783 c-9 -10 -19 -27 -23 -38 -6 -17 -3 -16 20 6 14 15 25 32
22 39 -2 8 -9 5 -19 -7z"/>
<path d="M7590 1684 c0 -11 -6 -28 -14 -39 -7 -11 -23 -47 -35 -80 -13 -33
-32 -75 -43 -93 -19 -30 -19 -62 0 -62 4 0 14 17 21 38 7 20 22 57 33 82 39
85 59 153 48 164 -7 7 -10 4 -10 -10z"/>
<path d="M7766 1499 c-10 -17 -16 -33 -13 -36 3 -3 13 9 22 27 21 41 14 48 -9
9z"/>
<path d="M7408 1369 c-27 -27 -48 -56 -48 -66 0 -13 -3 -14 -12 -5 -9 9 -16 8
-32 -7 -26 -23 -66 -36 -66 -22 0 6 -4 11 -10 11 -5 0 -10 -7 -10 -15 0 -8 -4
-15 -10 -15 -5 0 -10 -11 -10 -25 0 -18 -4 -23 -15 -19 -8 4 -15 1 -15 -5 0
-6 -7 -11 -15 -11 -10 0 -15 -10 -15 -32 0 -30 -1 -31 -15 -12 -14 18 -14 17
-15 -13 0 -18 -4 -33 -10 -33 -5 0 -10 -6 -10 -13 0 -23 -25 -67 -37 -67 -17
0 -16 -6 3 -35 24 -36 34 -31 49 25 14 49 37 88 56 93 15 4 17 12 14 43 -4 29
-3 32 3 14 11 -36 38 -37 56 -2 11 21 23 30 41 30 29 0 55 18 55 39 0 9 6 13
14 10 30 -12 126 109 126 158 0 36 -18 29 -72 -26z"/>
<path d="M9840 1320 c0 -5 5 -10 10 -10 6 0 10 5 10 10 0 6 -4 10 -10 10 -5 0
-10 -4 -10 -10z"/>
<path d="M9776 1281 c-28 -29 -28 -51 0 -51 21 0 54 37 54 60 0 28 -22 25 -54
-9z"/>
<path d="M9552 1258 c3 -7 17 -14 32 -16 20 -3 27 0 24 10 -3 7 -17 14 -32 16
-20 3 -27 0 -24 -10z"/>
<path d="M9659 1240 c26 -22 30 -23 50 -11 22 14 2 31 -37 31 l-37 -1 24 -19z"/>
<path d="M7030 939 c0 -28 19 -61 31 -54 13 9 11 49 -3 63 -18 18 -28 15 -28
-9z"/>
<path d="M7019 890 c0 -3 -3 -36 -6 -75 -3 -38 -9 -75 -14 -81 -12 -15 12 -65
31 -62 30 6 34 177 4 208 -8 8 -14 12 -15 10z"/>
<path d="M6943 667 c-12 -17 -43 -54 -68 -80 -25 -26 -45 -55 -45 -63 0 -7 -6
-14 -14 -14 -19 0 -38 -52 -30 -84 3 -15 1 -32 -5 -40 -8 -9 -8 -21 -1 -40 5
-14 6 -26 1 -26 -5 0 -11 7 -15 15 -7 19 -26 19 -26 0 0 -8 7 -33 16 -55 16
-40 34 -45 34 -10 0 10 7 20 15 24 8 3 15 14 15 25 0 11 5 23 10 26 6 3 10 21
10 39 0 26 8 40 40 67 22 19 40 42 40 51 0 10 18 36 39 58 44 46 55 77 41 114
-13 35 -30 33 -57 -7z"/>
<path d="M6700 263 c-12 -16 -25 -28 -28 -28 -4 0 -6 -11 -4 -25 2 -22 1 -23
-8 -7 -17 26 -43 22 -34 -5 14 -46 45 -98 58 -98 17 0 59 48 74 86 11 26 11
36 -4 67 -10 21 -21 37 -25 37 -4 0 -17 -12 -29 -27z"/>
<path d="M6594 166 c3 -13 9 -32 12 -43 3 -10 -3 -6 -12 10 -10 15 -25 27 -32
27 -9 0 -4 -18 17 -57 34 -63 36 -85 2 -28 -36 61 -65 30 -36 -38 14 -33 19
-37 51 -37 19 0 33 4 30 9 -3 5 1 12 10 15 9 4 14 13 10 21 -3 9 0 15 9 15 21
0 19 20 -6 55 -11 17 -24 40 -29 53 -13 30 -34 29 -26 -2z"/>
<path d="M6487 33 c-16 -15 -6 -33 18 -33 27 0 32 9 13 28 -14 14 -22 15 -31
5z"/>
</g>
</svg>
